<svg id="Dad_Son" data-name="Dad &amp; Son" xmlns="http://www.w3.org/2000/svg" viewBox="0 0 1378.12 366.75"><defs><style>.cls-1{fill:#fff;}</style></defs><title>Clouds1</title><g id="Desert"><g id="Clouds"><path class="cls-1" d="M273.63,111.88C283,86.23,306,66,332.69,60.13c11.16-2.48,23.72-2.31,33,4.4s12.94,21.54,5.13,29.89c15.76-10.28,32.55-20.9,51.36-21.7S461.74,85.17,461.88,104c.16,19.68-23.64,33.41-42.5,27.83,12,6.7,24.26,13.61,33.2,24.05s14,25.27,9.35,38.19c-6.51,17.92-29.48,25.13-48,20.51S380.5,196.73,366.35,184c-3,40.58-41.9,75.06-82.54,73.14-12.22-.58-24.85-4.38-33.24-13.29s-11.16-23.67-4-33.62c-32.19,1.24-60.3-33.66-52.24-64.85s49.57-48.08,77.13-31.39" transform="translate(-192.9 -34.17)"/><path class="cls-1" d="M674,195.85c-19.18,7.39-40.66,5.15-55.05-5.72-6-4.56-11-11.08-10.78-19s7.64-16.88,15.82-16.84c-12.57-3.2-25.77-6.77-33.9-16.05S581.41,112,592.63,103c11.73-9.43,29.64-3.74,34,8.6-.86-9.35-1.71-18.93.9-28.48s9.44-19.21,19.09-22.94C660,55,673.65,63.34,678.41,75s2.92,25.65,1,39c25.53-17.75,62-14.16,77.42,7.62,4.63,6.55,7.49,14.84,5.56,23.37s-9.64,17-18.5,18.06C757.75,179,748.27,210,726.3,220.68s-49-2.6-50.2-24.67" transform="translate(-192.9 -34.17)"/><path class="cls-1" d="M1413.93,144.6c6.48,19.51,3.24,40.86-8.3,54.72-4.84,5.81-11.59,10.5-19.51,9.88s-16.5-8.43-16.07-16.6c-3.8,12.41-8,25.42-17.63,33.11s-26.61,7.4-35.09-4.24c-8.87-12.16-2.34-29.79,10.18-33.53-9.37.42-19,.82-28.39-2.24s-18.76-10.33-22-20.15c-4.53-13.62,4.46-26.88,16.37-31.08s25.75-1.71,39,.82c-16.52-26.34-11.22-62.64,11.26-77,6.75-4.31,15.17-6.78,23.61-4.46s16.5,10.44,17.16,19.34c16.57-13.08,47.1-2.15,56.73,20.3s-4.9,48.81-27,49" transform="translate(-192.9 -34.17)"/><path class="cls-1" d="M955.79,117.24c-10.26,3.05-22.49.22-31.34-7.25-3.7-3.13-7-7.37-7.39-12.07s3.12-9.51,7.72-8.9c-7.29-2.79-15-5.84-20.18-11.92s-6.69-16.21-1-20.79c5.93-4.79,16.4-.15,19.69,7.49-1.14-5.62-2.28-11.38-1.48-16.88s4-10.77,9.12-12.31c7.16-2.14,15.43,3.79,18.92,11.08s3.44,15.46,3.3,23.26c13.11-8.77,33.88-4.08,44.05,9.94,3.06,4.22,5.25,9.35,4.76,14.3s-4.23,9.42-9.14,9.44c8.9,10.44,5.74,28.23-5.86,33s-27.72-5-29.94-18.18" transform="translate(-192.9 -34.17)"/><path class="cls-1" d="M1524.79,381.24c-10.26,3.05-22.49.22-31.34-7.25-3.7-3.13-7-7.37-7.39-12.07s3.12-9.51,7.72-8.9c-7.29-2.79-15-5.84-20.18-11.92s-6.69-16.21-1-20.79c5.93-4.79,16.4-.15,19.69,7.49-1.14-5.62-2.28-11.38-1.48-16.88s4-10.77,9.12-12.31c7.16-2.14,15.43,3.79,18.92,11.08s3.44,15.46,3.3,23.26c13.11-8.77,33.88-4.08,44,9.94,3.06,4.22,5.25,9.35,4.76,14.3s-4.23,9.42-9.14,9.44c8.9,10.44,5.74,28.23-5.86,33s-27.72-5-29.94-18.18" transform="translate(-192.9 -34.17)"/><path class="cls-1" d="M1104.3,186.36c1.28,10.64-3.57,22.21-12.43,29.68-3.71,3.12-8.43,5.64-13.14,5.25s-8.84-4.67-7.47-9.1c-4,6.72-8.27,13.76-15.15,17.88s-17.1,3.87-20.66-2.49c-3.72-6.66,2.61-16.19,10.69-18.16-5.73.18-11.59.34-16.88-1.37s-10-5.72-10.6-11.07c-.9-7.42,6.33-14.57,14.1-16.78s15.82-.79,23.48.65c-6.44-14.39,1.68-34.08,17.22-41.74,4.67-2.31,10.1-3.6,14.89-2.29s8.57,5.76,7.77,10.6c11.79-7,28.79-.91,31.58,11.34s-9.56,26.48-23,26.45" transform="translate(-192.9 -34.17)"/></g></g></svg>