<svg id="Dad_Son" data-name="Dad &amp; Son" xmlns="http://www.w3.org/2000/svg" viewBox="0 0 798.24 489.3"><defs><style>.cls-1{fill:#230e0e;}.cls-2{fill:#381616;}.cls-3{fill:#191919;}.cls-4{fill:#493915;}.cls-5{fill:#d3b524;}.cls-6{fill:#fff;}.cls-7{fill:#2d260b;}.cls-8{fill:#020200;}.cls-9{fill:#564314;}.cls-10{fill:#3f2a15;}</style></defs><title>Coyote1</title><g id="Coyote"><path class="cls-1" d="M1154.15,676.18a322.53,322.53,0,0,1,400.34-29.88c30.91,21,60.58,54.23,54.1,91.05-4.58,26-26.87,46.07-51.54,55.49s-51.69,10.07-78.1,10.62l-283.41,5.83" transform="translate(-994.25 -475.45)"/><polygon class="cls-2" points="192.05 361.67 362.45 61.89 0 75.28 192.05 361.67"/><polygon class="cls-2" points="89.98 6.69 49.02 78.75 136.15 75.53 89.98 6.69"/><polygon class="cls-2" points="271.21 0 230.25 72.06 317.37 68.84 271.21 0"/><ellipse class="cls-3" cx="1138.8" cy="611.78" rx="17.16" ry="36.56" transform="translate(-1016.05 -433.01) rotate(-2.11)"/><ellipse class="cls-3" cx="1217.84" cy="608.87" rx="17.16" ry="36.56" transform="translate(-1015.89 -430.09) rotate(-2.11)"/><rect class="cls-4" x="1186.06" y="569.34" width="61.18" height="14.92" transform="translate(-1123.31 56.59) rotate(-23.46)"/><rect class="cls-4" x="1107.03" y="572.26" width="61.18" height="14.92" transform="translate(-758.64 -799.41) rotate(18.05)"/><ellipse class="cls-5" cx="1138.06" cy="611.81" rx="4.48" ry="17.48" transform="translate(-1016.06 -433.04) rotate(-2.11)"/><ellipse class="cls-5" cx="1217.15" cy="610.38" rx="4.48" ry="17.48" transform="translate(-1015.95 -430.12) rotate(-2.11)"/><path class="cls-6" d="M1251.67,696.19a42.67,42.67,0,0,1-.63,9.25c-2.17,12.21-9.59,21.73-20.13,22.12-6.59.24-14.42-3.09-23-11.57l-48.43,1.79c-20.48,23.62-38.75,12.18-43.74-7.34a43.52,43.52,0,0,1-1.31-9.18,43.08,43.08,0,0,1,.55-8.71c2-12.14,9.16-21.66,19.45-22,6.77-.25,14.89,3.45,23.79,13l48.43-1.79c20.6-25.6,39-14,43.79,5.85A43.36,43.36,0,0,1,1251.67,696.19Z" transform="translate(-994.25 -475.45)"/><ellipse cx="1138.11" cy="613.3" rx="2.1" ry="8.21" transform="matrix(1, -0.04, 0.04, 1, -1016.11, -433.03)"/><ellipse cx="1217.15" cy="610.38" rx="2.1" ry="8.21" transform="translate(-1015.95 -430.12) rotate(-2.11)"/><path class="cls-4" d="M1173.34,636.5l-11.45,27.1c-.38.91,0,2.41,1.3,2.26l37.16-4.38c1.89-.23,1.91-3.23,0-3l-37.16,4.38,1.29,2.26L1175.93,638c.74-1.76-1.84-3.29-2.59-1.51Z" transform="translate(-994.25 -475.45)"/><path class="cls-7" d="M1251.67,696.19a42.67,42.67,0,0,1-.63,9.25l-135.25,5a43.52,43.52,0,0,1-1.31-9.18,43.08,43.08,0,0,1,.55-8.71l135.46-5A43.36,43.36,0,0,1,1251.67,696.19Z" transform="translate(-994.25 -475.45)"/><path class="cls-8" d="M1251.67,696.19a42.67,42.67,0,0,1-.63,9.25c-2.17,12.21-9.59,21.73-20.13,22.12-6.59.24-14.42-3.09-23-11.57l-.35,0-1.27-34.3h.36c20.6-25.6,39-14,43.79,5.85A43.36,43.36,0,0,1,1251.67,696.19Z" transform="translate(-994.25 -475.45)"/><path d="M1158.62,683.47l1.27,34.3h-.36c-20.48,23.62-38.75,12.18-43.74-7.34a43.52,43.52,0,0,1-1.31-9.18,43.08,43.08,0,0,1,.55-8.71c2-12.14,9.16-21.66,19.45-22,6.77-.25,14.89,3.45,23.79,13Z" transform="translate(-994.25 -475.45)"/><path class="cls-9" d="M1243.81,690.52A32.69,32.69,0,0,1,1265,663c1.79-.67,1-3.57-.8-2.9a35.85,35.85,0,0,0-23.35,30.39c-.18,1.92,2.82,1.91,3,0Z" transform="translate(-994.25 -475.45)"/><path class="cls-9" d="M1234.86,678.46a38.66,38.66,0,0,1,16-28.48c1.55-1.11.06-3.72-1.51-2.59a41.85,41.85,0,0,0-17.51,31.07c-.15,1.93,2.85,1.92,3,0Z" transform="translate(-994.25 -475.45)"/><path class="cls-9" d="M1229.48,699.13a35.11,35.11,0,0,1,3.88-33.78c1.12-1.58-1.48-3.08-2.59-1.52a37.83,37.83,0,0,0-4.18,36.09c.71,1.77,3.61,1,2.89-.79Z" transform="translate(-994.25 -475.45)"/><path class="cls-9" d="M1241.66,708.05a49.83,49.83,0,0,1,.92-25.34c.55-1.85-2.34-2.65-2.89-.8a53.15,53.15,0,0,0-.92,26.94c.41,1.88,3.3,1.09,2.89-.8Z" transform="translate(-994.25 -475.45)"/><path class="cls-9" d="M1124.73,688.5a64,64,0,0,0-8.18-21c-1-1.65-3.6-.14-2.59,1.51a61.83,61.83,0,0,1,7.88,20.33c.37,1.9,3.27,1.09,2.89-.79Z" transform="translate(-994.25 -475.45)"/><path class="cls-9" d="M1136.16,699.63a118.81,118.81,0,0,0-5-43.22c-.56-1.84-3.46-1.06-2.89.79a116.74,116.74,0,0,1,4.93,42.43c-.13,1.93,2.87,1.92,3,0Z" transform="translate(-994.25 -475.45)"/><path class="cls-9" d="M1149.39,696.18l-1.31-28.32c-.08-1.92-3.08-1.93-3,0l1.31,28.32c.09,1.93,3.09,1.94,3,0Z" transform="translate(-994.25 -475.45)"/><path class="cls-9" d="M1127.26,717.54a49.57,49.57,0,0,0-8.94-25.61c-1.1-1.57-3.7-.07-2.59,1.51a46.63,46.63,0,0,1,8.53,24.1c.13,1.91,3.13,1.93,3,0Z" transform="translate(-994.25 -475.45)"/><polygon class="cls-10" points="90.51 20.91 61.94 71.16 122.7 68.92 90.51 20.91"/><polygon class="cls-10" points="271.73 14.21 243.17 64.47 303.93 62.22 271.73 14.21"/><path class="cls-2" d="M1499.59,737.9c-31.43,12.7-56.88,38-73.28,67.67s-24.2,63.53-26.48,97.36c-.88,13-.85,26.65,4.82,38.41s18.51,21,31.33,18.54c13.42-2.55,21.9-16.61,23.61-30.16s-1.57-27.17-2.66-40.78A129.07,129.07,0,0,1,1485,798.43c5.35-6.6,11.42-12.76,15.2-20.36s4.85-17.25.08-24.27-16.57-8.95-21.69-2.18" transform="translate(-994.25 -475.45)"/><path class="cls-2" d="M1572.29,742.38c-31.43,12.7-56.88,38-73.28,67.67s-24.2,63.53-26.48,97.36c-.88,13-.85,26.65,4.82,38.4s18.51,21,31.33,18.55c13.42-2.55,21.9-16.61,23.6-30.16s-1.56-27.17-2.65-40.79a129,129,0,0,1,28.06-90.51c5.35-6.59,11.41-12.75,15.19-20.35s4.86-17.26.09-24.28-16.57-8.94-21.69-2.18" transform="translate(-994.25 -475.45)"/><path class="cls-2" d="M1571.08,694.57c70,35.17,140.94,70.64,221.41,84.78L1593.15,684c-4.71-2.26-10.13-4.51-15.86-2s-9.47,12.08-4.58,14" transform="translate(-994.25 -475.45)"/><path class="cls-2" d="M1315.59,730.9c-31.43,12.7-56.88,38-73.28,67.67s-24.2,63.53-26.48,97.36c-.88,13-.85,26.65,4.82,38.41s18.51,21,31.33,18.54c13.42-2.55,21.9-16.61,23.61-30.16s-1.57-27.17-2.66-40.78A129.07,129.07,0,0,1,1301,791.43c5.35-6.6,11.42-12.76,15.2-20.36s4.85-17.25.08-24.27-16.57-8.95-21.69-2.18" transform="translate(-994.25 -475.45)"/><path class="cls-2" d="M1388.29,735.38c-31.43,12.7-56.88,38-73.28,67.67s-24.2,63.53-26.48,97.36c-.88,13-.85,26.65,4.82,38.4s18.51,21,31.33,18.55c13.42-2.55,21.9-16.61,23.6-30.16s-1.56-27.17-2.65-40.79a129,129,0,0,1,28.06-90.51c5.35-6.59,11.41-12.75,15.19-20.35s4.86-17.26.09-24.28-16.57-8.94-21.69-2.18" transform="translate(-994.25 -475.45)"/></g></svg>