<svg id="Dad_Son" data-name="Dad &amp; Son" xmlns="http://www.w3.org/2000/svg" viewBox="0 0 371.37 610.04"><defs><style>.cls-1{fill:#3d290d;}.cls-2,.cls-4{fill:#e2c9a1;}.cls-2{stroke:#d1b27c;stroke-miterlimit:10;}.cls-3{fill:#3b5906;}.cls-5{fill:#fff;}.cls-6{fill:#fcfcfc;}.cls-7{fill:#7f643d;}.cls-8{fill:#21170c;}.cls-9{fill:#561212;}.cls-10{fill:#35420b;}.cls-11{fill:#f70b0b;}.cls-12{fill:#433828;}.cls-13,.cls-14{fill:#a29800;}.cls-13{opacity:0.35;}.cls-14{opacity:0.5;}.cls-15{fill:#2a330a;}.cls-16{fill:#7c633a;}.cls-17{fill:#563f21;}.cls-18{fill:#020100;}.cls-19{fill:#3f341b;}</style></defs><title>Dad1</title><g id="Bags"><rect class="cls-1" x="65.19" y="236.08" width="144" height="153.4" rx="12" ry="12"/></g><g id="Dad"><rect class="cls-2" x="101.95" y="530.5" width="20.55" height="26.86"/><rect class="cls-2" x="149.46" y="529.86" width="20.55" height="26.86"/><path class="cls-3" d="M663.82,696.68c0,1.37,0,2.75-.08,4.14s-.07,2.54-.11,3.81-.12,2.78-.2,4.17a298,298,0,0,1-7.36,51.47c-6.68,28.81-14.73,75.1-41,90.84-20.79,12.48-33.38,9.11-50.4-7.77-14.67-14.55-15.53-37.61-16.85-55.57-.38-5.14-.81-10.41-1.23-15.78l0-.24c-1.39-17.37-2.93-35.82-3.84-54.51v-.18q-.32-6.19-.51-12.43c-.47-14.64-.46-29.34.38-43.71q.36-6,.92-12,.53-5.72,1.28-11.32c.67-4.9,1.45-9.74,2.39-14.48a174.11,174.11,0,0,1,11-36.34l84-.76q2,5,3.89,10c1,2.72,2,5.47,2.89,8.23,1.34,4,2.61,8,3.78,12.13q2.14,7.45,3.92,15.14,1.92,8.37,3.36,17,1.62,9.78,2.56,19.9.9,9.81,1.11,19.95C663.83,691.16,663.85,693.91,663.82,696.68Z" transform="translate(-464.81 -343.92)"/><rect class="cls-4" x="43.2" y="58.61" width="187.41" height="195.9" rx="12" ry="12"/><path class="cls-5" d="M596.24,472.72c0,15.23-9.46,27.58-21.12,27.58S554,488,554,472.72a33.47,33.47,0,0,1,3.74-15.65c3.8-7.21,10.18-11.93,17.39-11.93s13.58,4.72,17.39,11.93A33.58,33.58,0,0,1,596.24,472.72Z" transform="translate(-464.81 -343.92)"/><ellipse class="cls-6" cx="167.46" cy="128.8" rx="21.12" ry="27.58"/><path class="cls-6" d="M642.46,534.52a23.47,23.47,0,0,1-.34,4.05c-.15.85-.34,1.67-.56,2.49a24.23,24.23,0,0,1-.86,2.48,23.94,23.94,0,0,1-5.25,7.91,22.33,22.33,0,0,1-2.32,2,23.81,23.81,0,0,1-14.6,5H585.31a23.89,23.89,0,0,1-22.12-14.91,22.24,22.24,0,0,1-1.41-5,23.67,23.67,0,0,1-.33-4v-1.48h79.6A1.41,1.41,0,0,1,642.46,534.52Z" transform="translate(-464.81 -343.92)"/><ellipse cx="110.3" cy="138.74" rx="13.67" ry="17.85"/><ellipse cx="167.46" cy="138.74" rx="13.67" ry="17.85"/><ellipse class="cls-5" cx="108.31" cy="134.27" rx="3.23" ry="4.22"/><ellipse class="cls-5" cx="164.48" cy="133.27" rx="3.23" ry="4.22"/><path class="cls-7" d="M601.9,496.57a117.75,117.75,0,0,0-13.29,22.14,1.51,1.51,0,0,0,2,2,17,17,0,0,1,16.22-.71c1.74.83,3.26-1.76,1.52-2.59a20.15,20.15,0,0,0-19.25.71l2.05,2.05a117.75,117.75,0,0,1,13.29-22.14c1.17-1.54-1.43-3-2.59-1.51Z" transform="translate(-464.81 -343.92)"/><path class="cls-4" d="M509.78,472.12c-1.27-3.62-6.4-5.3-10.29-3.93a11.18,11.18,0,0,0-7,8.82c-.61,3.77.37,7.6,1.74,11.2a58.65,58.65,0,0,0,15.05,22.16l1.49-38.65" transform="translate(-464.81 -343.92)"/><path class="cls-4" d="M692.78,472.89c1.27-3.62,6.41-5.3,10.29-3.93a11.19,11.19,0,0,1,7,8.83c.61,3.76-.38,7.59-1.74,11.19a58.88,58.88,0,0,1-15.05,22.17l-1.49-38.66" transform="translate(-464.81 -343.92)"/><path class="cls-8" d="M642.12,538.57c-.15.85-.34,1.67-.56,2.49a24.23,24.23,0,0,1-.86,2.48,23.94,23.94,0,0,1-5.25,7.91,22.33,22.33,0,0,1-2.32,2H570.74a23.76,23.76,0,0,1-7.55-9.94,22.24,22.24,0,0,1-1.41-5Z" transform="translate(-464.81 -343.92)"/><path class="cls-9" d="M613.62,553.48H588.8c.28-3,5.73-5.46,12.41-5.46S613.34,550.44,613.62,553.48Z" transform="translate(-464.81 -343.92)"/><polygon class="cls-10" points="199.88 360.71 199.37 365.11 179.97 530.18 89 530.18 81.81 428.07 81.78 427.82 77.94 373.32 77.93 373.14 77.06 360.71 199.88 360.71"/><path class="cls-11" d="M668,704.64" transform="translate(-464.81 -343.92)"/><path d="M604.77,873.52l-5.09-135.65c-.08-1.92-3.08-1.93-3,0l5.09,135.65c.07,1.92,3.07,1.93,3,0Z" transform="translate(-464.81 -343.92)"/><path d="M622.36,705.92c.2,19.87,16.89,34.44,36.39,34,1.92,0,1.93-3,0-3-17.86.42-33.21-12.71-33.39-31a1.5,1.5,0,0,0-3,0Z" transform="translate(-464.81 -343.92)"/><path d="M582,707.48c-2.6,17.69-18.6,28.75-36,26.89-1.92-.2-1.91,2.8,0,3,18.63,2,36.17-10.21,38.94-29.09.28-1.89-2.61-2.7-2.89-.8Z" transform="translate(-464.81 -343.92)"/><path d="M595.8,709.9c3.08-1.16,5.73-.45,6.56,3.21.34,1.47-.12,3.53-.17,5l-.39,11.67,1.9-1.44c-1.39-.3-4.88-.38-6-1.26-1.62-1.33-1.42-4.46-1.59-6.34a56.93,56.93,0,0,1,.34-12.58c.25-1.9-2.75-1.89-3,0a58.82,58.82,0,0,0,.92,20.45,1.46,1.46,0,0,0,1,1l7.44,1.57a1.52,1.52,0,0,0,1.9-1.45l.39-11.67c.09-2.68.68-5.82-.14-8.4-1.48-4.63-6.33-4.12-10-2.71-1.79.68-1,3.58.79,2.89Z" transform="translate(-464.81 -343.92)"/><path class="cls-3" d="M640.35,619.16A1014.86,1014.86,0,0,0,782.8,578l6.72,8.63A500.8,500.8,0,0,1,652.4,632.39c-4.36.77-9.36,1.33-12.74-1.55s-1.9-10.29,2.49-9.71Z" transform="translate(-464.81 -343.92)"/><path class="cls-3" d="M549.94,622.23c-30.05,9.8-56.17,27.56-71,48.3s-18.18,44.18-9.12,63.73l18.85-3.09c-5.88-15.54-3.82-33.32,5.78-49.83s26.67-31.65,47.85-42.44c8.56-4.35,18.91-9.19,20.3-16l-14.18-1.14Z" transform="translate(-464.81 -343.92)"/><path class="cls-4" d="M792.2,544.62a263.3,263.3,0,0,0-15.8,23.63c-1.24,2.07-2.44,4.16-3.62,6.27-.6,1.07-2.95,4.57-2.87,5.57.05.59,1.27.83,1.64,1l1.77,1c1.13.61,2.26,1.21,3.38,1.84l7.4,4,3.7,2,1.93,1.05c.3.16,1.23,1.06,1.65.79a15,15,0,0,0,1.73-2.91l1.78-3.09,3.71-6.43L806,566.46a18.7,18.7,0,0,0,2.2-4.79c.37-1.62,0-3.18-1.17-3-.93.12-2,1.25-2.9,2.3l-12.69,14.45L805.93,554a22.45,22.45,0,0,0,2.45-4.27c.59-1.51.75-3.18.09-3.87-1.09-1.14-3.42.76-5.17,2.57a175.32,175.32,0,0,0-16.73,20.23,162.7,162.7,0,0,0,14.36-20.89c1.7-2.92,3.44-6.45,3-8.9s-3-2.54-5.3-1S794.18,542,792.2,544.62Z" transform="translate(-464.81 -343.92)"/><path class="cls-4" d="M495.39,768.53a196.32,196.32,0,0,0-.56-25.75c-.18-2.17-.41-4.35-.67-6.52-.13-1.1-.21-4.92-.91-5.6-.42-.4-1.68.1-2.14.15l-2.21.28-4.23.52-9.25,1.13-4.63.57-2.41.3c-.37,0-1.78-.1-2,.32s.2,2.45.26,3.06l.33,3.21.69,6.69L469,760.26a13.84,13.84,0,0,0,1,4.68c.68,1.37,2,2.29,3,1.55.78-.59,1-2,1.19-3.24l2.41-17.4.38,23.41a16.77,16.77,0,0,0,.47,4.43c.42,1.42,1.32,2.71,2.36,2.85,1.71.23,2.63-2.42,3.08-4.68a132.49,132.49,0,0,0,2.43-23.79,120.82,120.82,0,0,0,.13,23c.31,3.05,1,6.55,2.9,8.09s4.31.21,5.47-2.15S495.26,771.52,495.39,768.53Z" transform="translate(-464.81 -343.92)"/><ellipse cx="134.49" cy="260.09" rx="1.66" ry="1.6"/><ellipse cx="134.49" cy="265.11" rx="1.66" ry="1.6"/><ellipse cx="134.49" cy="270.13" rx="1.66" ry="1.6"/><ellipse cx="133.82" cy="369.44" rx="1.66" ry="1.6"/><ellipse cx="133.82" cy="374.46" rx="1.66" ry="1.6"/><ellipse cx="133.82" cy="379.49" rx="1.66" ry="1.6"/><path class="cls-12" d="M570.1,411.36a1.5,1.5,0,0,0,0-3,1.5,1.5,0,0,0,0,3Z" transform="translate(-464.81 -343.92)"/><path class="cls-12" d="M570.49,418.3a1.5,1.5,0,0,0,0-3,1.5,1.5,0,0,0,0,3Z" transform="translate(-464.81 -343.92)"/><path class="cls-12" d="M570.88,426.4a1.5,1.5,0,0,0,0-3,1.5,1.5,0,0,0,0,3Z" transform="translate(-464.81 -343.92)"/><path class="cls-12" d="M571.26,433.73a1.5,1.5,0,0,0,0-3,1.5,1.5,0,0,0,0,3Z" transform="translate(-464.81 -343.92)"/><path class="cls-12" d="M579.36,411.36a1.5,1.5,0,0,0,0-3,1.5,1.5,0,0,0,0,3Z" transform="translate(-464.81 -343.92)"/><path class="cls-12" d="M579.75,418.3a1.5,1.5,0,0,0,0-3,1.5,1.5,0,0,0,0,3Z" transform="translate(-464.81 -343.92)"/><path class="cls-12" d="M580.13,426.4a1.5,1.5,0,0,0,0-3,1.5,1.5,0,0,0,0,3Z" transform="translate(-464.81 -343.92)"/><path class="cls-12" d="M580.52,433.73a1.5,1.5,0,0,0,0-3,1.5,1.5,0,0,0,0,3Z" transform="translate(-464.81 -343.92)"/><path class="cls-12" d="M587.84,411.36a1.5,1.5,0,0,0,0-3,1.5,1.5,0,0,0,0,3Z" transform="translate(-464.81 -343.92)"/><path class="cls-12" d="M588.23,418.3a1.5,1.5,0,0,0,0-3,1.5,1.5,0,0,0,0,3Z" transform="translate(-464.81 -343.92)"/><path class="cls-12" d="M588.61,426.4a1.5,1.5,0,0,0,0-3,1.5,1.5,0,0,0,0,3Z" transform="translate(-464.81 -343.92)"/><path class="cls-12" d="M589,433.73a1.5,1.5,0,0,0,0-3,1.5,1.5,0,0,0,0,3Z" transform="translate(-464.81 -343.92)"/><path class="cls-12" d="M597.1,411.36a1.5,1.5,0,0,0,0-3,1.5,1.5,0,0,0,0,3Z" transform="translate(-464.81 -343.92)"/><path class="cls-12" d="M597.48,418.3a1.5,1.5,0,0,0,0-3,1.5,1.5,0,0,0,0,3Z" transform="translate(-464.81 -343.92)"/><path class="cls-12" d="M597.87,426.4a1.5,1.5,0,0,0,0-3,1.5,1.5,0,0,0,0,3Z" transform="translate(-464.81 -343.92)"/><path class="cls-12" d="M598.26,433.73a1.5,1.5,0,0,0,0-3,1.5,1.5,0,0,0,0,3Z" transform="translate(-464.81 -343.92)"/><path class="cls-12" d="M604.81,411.36a1.5,1.5,0,0,0,0-3,1.5,1.5,0,0,0,0,3Z" transform="translate(-464.81 -343.92)"/><path class="cls-12" d="M605.2,418.3a1.5,1.5,0,0,0,0-3,1.5,1.5,0,0,0,0,3Z" transform="translate(-464.81 -343.92)"/><path class="cls-12" d="M605.58,426.4a1.5,1.5,0,0,0,0-3,1.5,1.5,0,0,0,0,3Z" transform="translate(-464.81 -343.92)"/><path class="cls-12" d="M606,433.73a1.5,1.5,0,0,0,0-3,1.5,1.5,0,0,0,0,3Z" transform="translate(-464.81 -343.92)"/><path class="cls-12" d="M611.75,411.36a1.5,1.5,0,0,0,0-3,1.5,1.5,0,0,0,0,3Z" transform="translate(-464.81 -343.92)"/><path class="cls-12" d="M612.14,418.3a1.5,1.5,0,0,0,0-3,1.5,1.5,0,0,0,0,3Z" transform="translate(-464.81 -343.92)"/><path class="cls-12" d="M612.52,426.4a1.5,1.5,0,0,0,0-3,1.5,1.5,0,0,0,0,3Z" transform="translate(-464.81 -343.92)"/><path class="cls-12" d="M612.91,433.73a1.5,1.5,0,0,0,0-3,1.5,1.5,0,0,0,0,3Z" transform="translate(-464.81 -343.92)"/><path class="cls-12" d="M621,411.36a1.5,1.5,0,0,0,0-3,1.5,1.5,0,0,0,0,3Z" transform="translate(-464.81 -343.92)"/><path class="cls-12" d="M621.39,418.3a1.5,1.5,0,0,0,0-3,1.5,1.5,0,0,0,0,3Z" transform="translate(-464.81 -343.92)"/><path class="cls-12" d="M621.78,426.4a1.5,1.5,0,0,0,0-3,1.5,1.5,0,0,0,0,3Z" transform="translate(-464.81 -343.92)"/><path class="cls-12" d="M622.16,433.73a1.5,1.5,0,0,0,0-3,1.5,1.5,0,0,0,0,3Z" transform="translate(-464.81 -343.92)"/><path class="cls-12" d="M629.49,411.36a1.5,1.5,0,0,0,0-3,1.5,1.5,0,0,0,0,3Z" transform="translate(-464.81 -343.92)"/><path class="cls-12" d="M629.88,418.3a1.5,1.5,0,0,0,0-3,1.5,1.5,0,0,0,0,3Z" transform="translate(-464.81 -343.92)"/><path class="cls-12" d="M630.26,426.4a1.5,1.5,0,0,0,0-3,1.5,1.5,0,0,0,0,3Z" transform="translate(-464.81 -343.92)"/><path class="cls-12" d="M630.65,433.73a1.5,1.5,0,0,0,0-3,1.5,1.5,0,0,0,0,3Z" transform="translate(-464.81 -343.92)"/><path class="cls-12" d="M638.75,411.36a1.5,1.5,0,0,0,0-3,1.5,1.5,0,0,0,0,3Z" transform="translate(-464.81 -343.92)"/><path class="cls-12" d="M639.13,418.3a1.5,1.5,0,0,0,0-3,1.5,1.5,0,0,0,0,3Z" transform="translate(-464.81 -343.92)"/><path class="cls-12" d="M639.52,426.4a1.5,1.5,0,0,0,0-3,1.5,1.5,0,0,0,0,3Z" transform="translate(-464.81 -343.92)"/><path class="cls-12" d="M639.9,433.73a1.5,1.5,0,0,0,0-3,1.5,1.5,0,0,0,0,3Z" transform="translate(-464.81 -343.92)"/><path class="cls-12" d="M646.46,411.36a1.5,1.5,0,0,0,0-3,1.5,1.5,0,0,0,0,3Z" transform="translate(-464.81 -343.92)"/><path class="cls-12" d="M646.84,418.3a1.5,1.5,0,0,0,0-3,1.5,1.5,0,0,0,0,3Z" transform="translate(-464.81 -343.92)"/><path class="cls-12" d="M647.23,426.4a1.5,1.5,0,0,0,0-3,1.5,1.5,0,0,0,0,3Z" transform="translate(-464.81 -343.92)"/><path class="cls-12" d="M647.61,433.73a1.5,1.5,0,0,0,0-3,1.5,1.5,0,0,0,0,3Z" transform="translate(-464.81 -343.92)"/><path class="cls-12" d="M570.1,406.16a1.5,1.5,0,0,0,0-3,1.5,1.5,0,0,0,0,3Z" transform="translate(-464.81 -343.92)"/><path class="cls-12" d="M579.36,406.16a1.5,1.5,0,0,0,0-3,1.5,1.5,0,0,0,0,3Z" transform="translate(-464.81 -343.92)"/><path class="cls-12" d="M588,406.16a1.5,1.5,0,0,0,0-3,1.5,1.5,0,0,0,0,3Z" transform="translate(-464.81 -343.92)"/><path class="cls-12" d="M596.33,406.16a1.5,1.5,0,0,0,0-3,1.5,1.5,0,0,0,0,3Z" transform="translate(-464.81 -343.92)"/><path class="cls-12" d="M604.62,406.35a1.5,1.5,0,0,0,0-3,1.5,1.5,0,0,0,0,3Z" transform="translate(-464.81 -343.92)"/><path class="cls-12" d="M611.75,406.16a1.5,1.5,0,0,0,0-3,1.5,1.5,0,0,0,0,3Z" transform="translate(-464.81 -343.92)"/><path class="cls-12" d="M621.1,406.54a1.5,1.5,0,0,0,0-3,1.5,1.5,0,0,0,0,3Z" transform="translate(-464.81 -343.92)"/><path class="cls-12" d="M629.39,405.87a1.5,1.5,0,0,0,0-3,1.5,1.5,0,0,0,0,3Z" transform="translate(-464.81 -343.92)"/><path class="cls-12" d="M639.13,406.35a1.5,1.5,0,0,0,0-3,1.5,1.5,0,0,0,0,3Z" transform="translate(-464.81 -343.92)"/><path class="cls-12" d="M647.23,406.35a1.5,1.5,0,0,0,0-3,1.5,1.5,0,0,0,0,3Z" transform="translate(-464.81 -343.92)"/><path class="cls-12" d="M563.68,406a1.5,1.5,0,0,0,0-3,1.5,1.5,0,0,0,0,3Z" transform="translate(-464.81 -343.92)"/><path class="cls-12" d="M563.29,412.39a1.5,1.5,0,0,0,0-3,1.5,1.5,0,0,0,0,3Z" transform="translate(-464.81 -343.92)"/><path class="cls-12" d="M563,419.46a1.5,1.5,0,0,0,0-3,1.5,1.5,0,0,0,0,3Z" transform="translate(-464.81 -343.92)"/><path class="cls-12" d="M563,426.53a1.5,1.5,0,0,0,0-3,1.5,1.5,0,0,0,0,3Z" transform="translate(-464.81 -343.92)"/><path class="cls-12" d="M563.16,433.6a1.5,1.5,0,0,0,0-3,1.5,1.5,0,0,0,0,3Z" transform="translate(-464.81 -343.92)"/><polygon class="cls-13" points="130.14 288.18 118.8 284.82 110.07 292.8 109.22 280.35 99.15 273.7 109.97 269.37 112.47 257.29 120 267.07 131.63 266.24 125.46 276.61 130.14 288.18"/><path class="cls-14" d="M582.7,659.34l9.07,22.44-22-6.52-16.94,15.47-1.64-24.15-8.58-5.66q.36-6,.92-12l9.1-3.65,2.86-13.74,1.89-9.12.12-.57.48.62,3,3.92,11.11,14.42,22.54-1.61Z" transform="translate(-464.81 -343.92)"/><polygon class="cls-13" points="161.76 342.17 150.42 338.81 141.69 346.79 140.84 334.33 130.77 327.69 141.59 323.36 144.09 311.28 151.62 321.05 163.25 320.23 157.08 330.6 161.76 342.17"/><polygon class="cls-13" points="171.02 305.92 159.68 302.56 150.94 310.54 150.1 298.08 140.02 291.44 150.84 287.11 153.35 275.03 160.88 284.81 172.5 283.98 166.34 294.35 171.02 305.92"/><path class="cls-13" d="M662.67,668.48l-6.56-2-8.73,8-.85-12.45-10.07-6.64,10.82-4.34,2.5-12.08,7.54,9.78,2.79-.2Q661.73,658.36,662.67,668.48Z" transform="translate(-464.81 -343.92)"/><path class="cls-3" d="M44.5,0H228a20.4,20.4,0,0,1,20.4,20.4V84.84a0,0,0,0,1,0,0H27.78a0,0,0,0,1,0,0V16.72A16.72,16.72,0,0,1,44.5,0Z"/><polygon class="cls-3" points="347.07 84.84 248.36 84.84 248.36 63.24 248.36 63.24 347.07 84.84"/><path class="cls-15" d="M44.5,0H228a20.4,20.4,0,0,1,20.4,20.4V63.24a0,0,0,0,1,0,0H27.78a0,0,0,0,1,0,0V16.72A16.72,16.72,0,0,1,44.5,0Z"/><rect class="cls-16" x="142.68" y="100.14" width="51.69" height="17.09"/><rect class="cls-16" x="85.61" y="100.14" width="51.69" height="17.09"/><rect class="cls-17" x="142.67" y="543.74" width="40.57" height="66.31"/><rect class="cls-17" x="183.24" y="574.19" width="53.55" height="35.85"/><rect class="cls-17" x="92.56" y="543.74" width="40.57" height="66.31"/><rect class="cls-17" x="133.13" y="574.19" width="54.61" height="35.85"/><path class="cls-18" d="M596.71,906.78h-13.3a1.5,1.5,0,0,0,0,3h13.3a1.5,1.5,0,0,0,0-3Z" transform="translate(-464.81 -343.92)"/><path class="cls-18" d="M596.52,899.07h-13.3a1.5,1.5,0,0,0,0,3h13.3a1.5,1.5,0,0,0,0-3Z" transform="translate(-464.81 -343.92)"/><path class="cls-18" d="M596.91,914.3H582.83a1.5,1.5,0,0,0,0,3h14.08a1.5,1.5,0,0,0,0-3Z" transform="translate(-464.81 -343.92)"/><path class="cls-18" d="M646.59,896.69H634a1.5,1.5,0,0,0,0,3h12.6a1.5,1.5,0,0,0,0-3Z" transform="translate(-464.81 -343.92)"/><path class="cls-18" d="M646.59,904.4H633.73a1.5,1.5,0,0,0,0,3h12.86a1.5,1.5,0,0,0,0-3Z" transform="translate(-464.81 -343.92)"/><path class="cls-18" d="M646.07,913.53H634.5a1.5,1.5,0,0,0,0,3h11.57a1.5,1.5,0,0,0,0-3Z" transform="translate(-464.81 -343.92)"/><path class="cls-19" d="M556.49,536.58a13.69,13.69,0,0,1,1.11-11.51,1.5,1.5,0,0,0-2.59-1.51,16.68,16.68,0,0,0-1.41,13.82c.61,1.82,3.51,1,2.89-.8Z" transform="translate(-464.81 -343.92)"/><path class="cls-19" d="M649.76,537.82a18.22,18.22,0,0,0-.2-15.54c-.83-1.74-3.42-.22-2.59,1.51a14.93,14.93,0,0,1,.2,12.52c-.77,1.75,1.82,3.28,2.59,1.51Z" transform="translate(-464.81 -343.92)"/><path class="cls-19" d="M502.29,478.67l0,15.49,2.56-1.06a13.11,13.11,0,0,1-1.38-14.93c.94-1.69-1.65-3.2-2.59-1.51a16.23,16.23,0,0,0,1.85,18.56,1.51,1.51,0,0,0,2.56-1.06l0-15.49a1.5,1.5,0,0,0-3,0Z" transform="translate(-464.81 -343.92)"/><path class="cls-19" d="M500.38,481.35l.39,6c.13,1.92,3.13,1.93,3,0l-.39-6c-.13-1.92-3.13-1.94-3,0Z" transform="translate(-464.81 -343.92)"/><path class="cls-19" d="M503.54,479.2c.64-.82,1.45-1.62,1-2.74a1.66,1.66,0,0,0-1.35-1,2,2,0,0,0-1.62.62l2.12,2.12c.2-.16.15-.17-.15,0s-.37.1-.15.11l-.76-.21a.72.72,0,0,1-.37-.6c0-.13,0-.09,0,.11s0,.29,0,.44a8,8,0,0,1,0,1,1.51,1.51,0,0,0,1.5,1.5,1.54,1.54,0,0,0,1.5-1.5,4.67,4.67,0,0,0-.35-2.84,1.92,1.92,0,0,0-1.62-.89,2.47,2.47,0,0,0-1.7.81,1.5,1.5,0,0,0,2.12,2.12l-.05.05-.76.2-.19,0L502,478l.08.07-.39-.67,0,.13v-.8c.1-.27.2-.33,0-.05l-.28.37a1.55,1.55,0,0,0,0,2.12,1.51,1.51,0,0,0,2.12,0Z" transform="translate(-464.81 -343.92)"/><path class="cls-19" d="M697.77,478.67l0,15.49a1.51,1.51,0,0,0,2.56,1.06,16.21,16.21,0,0,0,1.85-18.56c-.94-1.69-3.53-.18-2.59,1.51a13.11,13.11,0,0,1-1.38,14.93l2.56,1.06,0-15.49a1.5,1.5,0,0,0-3,0Z" transform="translate(-464.81 -343.92)"/><path class="cls-19" d="M699.68,481.35l-.39,6c-.13,1.93,2.87,1.92,3,0l.39-6c.13-1.93-2.87-1.92-3,0Z" transform="translate(-464.81 -343.92)"/><path class="cls-19" d="M701.64,477.08l-.28-.37c-.14-.17-.21-.43,0,.05v.8l0-.13-.39.67L701,478l-.66.38-.19,0-.76-.2,0-.05a1.55,1.55,0,0,0,2.13,0,1.52,1.52,0,0,0,0-2.12,2.45,2.45,0,0,0-1.7-.81,1.94,1.94,0,0,0-1.63.89,4.6,4.6,0,0,0-.35,2.84,1.5,1.5,0,0,0,3,0c0-.32-.05-.65-.05-1,0-.15,0-.3,0-.44l0-.18a.78.78,0,0,1-.38.67l-.76.21c.22,0,.17-.05-.15-.11s-.35-.14-.15,0l2.13-2.12a2.06,2.06,0,0,0-1.43-.64,1.71,1.71,0,0,0-1.55,1c-.46,1.12.35,1.92,1,2.74a1.5,1.5,0,0,0,2.12,0,1.53,1.53,0,0,0,0-2.12Z" transform="translate(-464.81 -343.92)"/></g><g id="Bags_2" data-name="Bags 2"><path class="cls-1" d="M652,603.5c-7.23,20.92-2,45.64,13,61.85a47.79,47.79,0,0,1-25.11-34.76c-.9-5.92-.63-12.15,1.71-17.66s7-10.22,12.73-11.83l-.59,4.4" transform="translate(-464.81 -343.92)"/><path class="cls-1" d="M547.49,605.5c7.24,20.92,2,45.64-13,61.85a47.77,47.77,0,0,0,25.11-34.76c.91-5.92.64-12.15-1.71-17.66s-7-10.22-12.72-11.83l.58,4.4" transform="translate(-464.81 -343.92)"/></g><g id="Pistol"><rect x="782.48" y="530.93" width="18.71" height="74.5" transform="translate(-599.48 526.63) rotate(-53.74)"/><rect x="754.78" y="497.46" width="93.88" height="16.61" transform="translate(-545.11 509.11) rotate(-53.74)"/><path d="M801.35,516.15l11.46,18.58c.59,1.27-1.1,5-1.55,6.28l-8.61,25.12-6.58-1.72L803,542.6a12.52,12.52,0,0,0,.14-7.2l-4.5-16.14Z" transform="translate(-464.81 -343.92)"/><path d="M784.13,541.35l11.36,1.4-6.73-4.27a3,3,0,0,0-2.9-.6,3.73,3.73,0,0,0-1.7,1.72,10.14,10.14,0,0,0-.8,2.28" transform="translate(-464.81 -343.92)"/><path d="M826.64,472l-10.25-7.46,7.82.4a2.79,2.79,0,0,1,2.74,1.62,7.49,7.49,0,0,1,.55,3.36,19.14,19.14,0,0,1-.48,3.3" transform="translate(-464.81 -343.92)"/></g></svg>