<svg id="Dad_Son" data-name="Dad &amp; Son" xmlns="http://www.w3.org/2000/svg" viewBox="0 0 1865 423"><defs><style>.cls-1{fill:#4fbf30;}.cls-2{fill:#49932e;}.cls-3{fill:#4c9630;}.cls-4{fill:#488e2e;}</style></defs><title>Foreground1</title><g id="Cactus_Front_" data-name="Cactus (Front)"><rect class="cls-1" x="146.05" y="329.85" width="47.12" height="93.15"/><rect class="cls-1" x="146.05" y="404.03" width="110.73" height="18.97"/><path class="cls-1" d="M225.17,962.82v31.54a8.51,8.51,0,0,1-8.52,8.52H186.6a8.53,8.53,0,0,1-8.55-8.52V961.75a23,23,0,0,1,23-23h.07A24.08,24.08,0,0,1,225.17,962.82Z" transform="translate(-32 -657)"/><path class="cls-1" d="M81.47,1065.67V1080H32v-15.57a24.12,24.12,0,0,1,24.12-24.11A25.35,25.35,0,0,1,81.47,1065.67Z" transform="translate(-32 -657)"/><path class="cls-1" d="M331.19,983.07V1080H288.78V985.13a10.32,10.32,0,0,1,10.32-10.31h23.83A8.26,8.26,0,0,1,331.19,983.07Z" transform="translate(-32 -657)"/><rect class="cls-1" x="807.67" y="292.99" width="26.24" height="97.16"/><rect class="cls-1" x="807.67" y="341.57" width="61.69" height="28.89"/><rect class="cls-1" x="807.67" y="384.46" width="26.25" height="38.54"/><path class="cls-1" d="M839.67,1049.34V1069H778a19.66,19.66,0,0,1-19.66-18.86c0-.27,0-.55,0-.82Z" transform="translate(-32 -657)"/><path class="cls-1" d="M865.92,931.92v23.82a4.75,4.75,0,0,1-4.75,4.75H844.42a4.75,4.75,0,0,1-4.75-4.75V931.33a12.8,12.8,0,0,1,12.25-12.81,3.82,3.82,0,0,1,.59,0A13.42,13.42,0,0,1,865.92,931.92Z" transform="translate(-32 -657)"/><path class="cls-1" d="M785.84,999.14V1050a3.31,3.31,0,0,1-3.31,3.29H761.59a3.31,3.31,0,0,1-3.29-3.11.55.55,0,0,1,0-.18V998.45A13.46,13.46,0,0,1,771.73,985,14.13,14.13,0,0,1,785.84,999.14Z" transform="translate(-32 -657)"/><path class="cls-1" d="M875.12,285.12H888.4a4.6,4.6,0,0,1,4.6,4.6v77.37a3.36,3.36,0,0,1-3.36,3.36H869.37a0,0,0,0,1,0,0V290.87A5.75,5.75,0,0,1,875.12,285.12Z"/><rect class="cls-1" x="571.61" y="370.05" width="37.05" height="52.95"/><path class="cls-1" d="M640.66,1001.54v33.64a6.69,6.69,0,0,1-6.7,6.69H610.33a6.71,6.71,0,0,1-6.72-6.69v-34.47a18.09,18.09,0,0,1,17.63-18.09,3.85,3.85,0,0,1,.48,0A18.94,18.94,0,0,1,640.66,1001.54Z" transform="translate(-32 -657)"/><path class="cls-1" d="M519.09,1080H496.71a18.84,18.84,0,0,1,11.05-3.55A19.74,19.74,0,0,1,519.09,1080Z" transform="translate(-32 -657)"/><path class="cls-1" d="M724,1022.43V1080H690.68v-56a8.11,8.11,0,0,1,8.1-8.11h18.75A6.5,6.5,0,0,1,724,1022.43Z" transform="translate(-32 -657)"/><path class="cls-2" d="M81.47,1080H32v-15.57a24.12,24.12,0,0,1,24.12-24.11,25.35,25.35,0,0,1,25.35,25.35Z" transform="translate(-32 -657)"/><path class="cls-2" d="M201,938.73V1080h-23V961.75A23,23,0,0,1,201,938.73Z" transform="translate(-32 -657)"/><path class="cls-3" d="M851.92,918.52V1080H839.67v-11H778a19.66,19.66,0,0,1-19.66-18.86.55.55,0,0,1,0-.18V998.45A13.46,13.46,0,0,1,771.73,985a14.13,14.13,0,0,1,14.11,14.14v50.2h53.83v-118A12.8,12.8,0,0,1,851.92,918.52Z" transform="translate(-32 -657)"/><path class="cls-4" d="M519.09,1080H496.71a18.84,18.84,0,0,1,11.05-3.55A19.74,19.74,0,0,1,519.09,1080Z" transform="translate(-32 -657)"/><path class="cls-4" d="M621.24,982.62V1080H603.61v-79.29A18.09,18.09,0,0,1,621.24,982.62Z" transform="translate(-32 -657)"/><rect class="cls-1" x="1670" y="72" width="60" height="222"/><rect class="cls-1" x="1670" y="183" width="141" height="66"/><polygon class="cls-1" points="1681 423 1730 423 1730 294 1730 281 1681 281 1670 281 1670 294 1670 299 1670 344 1670 423 1681 423"/><path class="cls-1" d="M1702,956v45H1533.38A17.38,17.38,0,0,1,1516,983.62V956Z" transform="translate(-32 -657)"/><path class="cls-1" d="M1762,686.15v56.53A10.32,10.32,0,0,1,1751.68,753h-39.36A10.32,10.32,0,0,1,1702,742.68V684.85A27.88,27.88,0,0,1,1729.85,657h3A29.15,29.15,0,0,1,1762,686.15Z" transform="translate(-32 -657)"/><path class="cls-1" d="M1579,839.09V958a7,7,0,0,1-7,7H1523a7,7,0,0,1-7-7V837.64A28.63,28.63,0,0,1,1544.64,809h4.27A30.09,30.09,0,0,1,1579,839.09Z" transform="translate(-32 -657)"/><path class="cls-1" d="M1841,54h0a24,24,0,0,1,24,24V231.45A17.55,17.55,0,0,1,1847.45,249H1811a0,0,0,0,1,0,0V84a30,30,0,0,1,30-30Z"/><path class="cls-4" d="M1713,1080V662.69a27.76,27.76,0,0,0-11,22.16V956H1579V839.09A30.09,30.09,0,0,0,1548.91,809h-4.27A28.63,28.63,0,0,0,1516,837.64v146a17.38,17.38,0,0,0,17.38,17.38H1702v79Z" transform="translate(-32 -657)"/><rect class="cls-1" x="1409.13" y="230.53" width="44.88" height="166.06"/><rect class="cls-1" x="1409.13" y="313.56" width="105.47" height="49.37"/><rect class="cls-1" x="1409.13" y="386.87" width="44.89" height="36.13"/><path class="cls-1" d="M1441.13,1057.33V1080h-139c0-.12,0-.24-.05-.37s0-.26,0-.39,0-.38,0-.58,0-.45,0-.67v-20.66Z" transform="translate(-32 -657)"/><path class="cls-1" d="M1486,855.47v42.29a7.72,7.72,0,0,1-7.72,7.72h-29.45a7.72,7.72,0,0,1-7.72-7.72V854.5A20.86,20.86,0,0,1,1462,833.67h2.24A21.81,21.81,0,0,1,1486,855.47Z" transform="translate(-32 -657)"/><path class="cls-1" d="M1349.13,969.88v88.92a5.26,5.26,0,0,1-5.27,5.26h-36.59a5.26,5.26,0,0,1-5.27-5.26v-90a21.41,21.41,0,0,1,21.42-21.42h3.2A22.51,22.51,0,0,1,1349.13,969.88Z" transform="translate(-32 -657)"/><path class="cls-1" d="M1537,217.06h0a18,18,0,0,1,18,18V349.8a13.13,13.13,0,0,1-13.13,13.13h-27.26a0,0,0,0,1,0,0V239.5A22.44,22.44,0,0,1,1537,217.06Z"/><path class="cls-4" d="M1449.36,837.93V1080h-147.2c0-.12,0-.24-.05-.37s0-.26,0-.39,0-.38,0-.58,0-.45,0-.67V968.79a21.41,21.41,0,0,1,21.42-21.42h3.2a22.51,22.51,0,0,1,22.51,22.51v87.45h92V854.5A20.77,20.77,0,0,1,1449.36,837.93Z" transform="translate(-32 -657)"/></g></svg>