<svg id="Dad_Son" data-name="Dad &amp; Son" xmlns="http://www.w3.org/2000/svg" viewBox="0 0 1920 994"><defs><style>.cls-1{fill:#c47d3d;}.cls-2{opacity:0.75;}.cls-3{fill:#d3b362;}.cls-4{opacity:0.05;}.cls-5{fill:#4fbf30;}.cls-6{fill:#49932e;}.cls-7{fill:#4c9630;}.cls-8{fill:#488e2e;}</style></defs><title>Middleground</title><g id="Desert"><g id="Mountains"><path class="cls-1" d="M1920,579v501H0V174H156s1.55,35.2,1.3,70.22c-.09,13.65-.46,27.28-1.3,38.78-3,41,1,144,1,144H354V307H471V492H681V259H897V427h198V102h219V532h147V394h130V579Z" transform="translate(0 -86)"/><rect class="cls-1" x="122" width="37" height="341"/><rect class="cls-1" x="629" y="28" width="52" height="378"/><rect class="cls-1" x="302" y="277" width="52" height="64"/><rect class="cls-1" x="1013" y="221" width="82" height="120"/><rect class="cls-1" x="1427" y="171" width="37" height="275"/><path class="cls-1" d="M1317.52,555.08l66.45-211,61,220.72c-23.42-5.69-51.29-1.23-77.24.63s-59.46-1.57-65.31-13.88" transform="translate(0 -86)"/><path class="cls-1" d="M961.15,434.08l44.75-210.95L1047,443.85c-15.77-5.69-34.54-1.23-52,.63s-40-1.57-44-13.88" transform="translate(0 -86)"/><path class="cls-1" d="M131.47,447.47,195.34,335,254,452.69c-22.51-3-49.29-.66-74.24.33s-57.15-.84-62.77-7.4" transform="translate(0 -86)"/><path class="cls-1" d="M1036.77,392.44l104.9-287.63,96.33,301c-37-7.77-81-1.68-121.92.86s-93.86-2.15-103.09-18.92" transform="translate(0 -86)"/></g><g id="Floor"><g class="cls-2"><rect class="cls-3" x="1" y="646" width="1918" height="348"/></g><path class="cls-4" d="M131.7,894.1,0,906V731H1661v13.72H1436.94v28.42l-60.56,5.59-109.87,10.16-2.59.25-29.42,2.71V765.6h-97.75v35.29L947.29,818.41,876.35,825V812.24H776v22L589.14,851.53l-45,4.16V783.37H459.37v52H407.46v30.21H331.33L331,872.2c0,3.78-3.42,3.51-8.41,4l-16.34,1.51v-37h-45V812.24H218.87v56.41h-37.2l.33-16.73-2.55,1a2.15,2.15,0,0,1-.8.15l-29.06.13c-6.66,0-12,4.09-12,9.09" transform="translate(0 -86)"/></g></g><g id="Cactus_Back_" data-name="Cactus (Back)"><rect class="cls-5" x="966.4" y="609.38" width="12.64" height="39.59"/><rect class="cls-5" x="966.4" y="629.17" width="29.7" height="11.77"/><rect class="cls-5" x="966.4" y="646.65" width="12.64" height="49.22"/><path class="cls-5" d="M966.4,735.86v8H935.28a8,8,0,0,1-8.06-7.83v-.19Z" transform="translate(0 -86)"/><path class="cls-5" d="M979,689v8.41a2.29,2.29,0,0,1-2.29,2.28h-8.06a2.28,2.28,0,0,1-2.29-2.28v-8.7a6.16,6.16,0,0,1,6.16-6.14h0A6.44,6.44,0,0,1,979,689Z" transform="translate(0 -86)"/><path class="cls-5" d="M940.49,716.41v19.47a1.59,1.59,0,0,1-1.59,1.58H928.81a1.59,1.59,0,0,1-1.59-1.41v-20a6.45,6.45,0,0,1,6.47-6.44A6.79,6.79,0,0,1,940.49,716.41Z" transform="translate(0 -86)"/><path class="cls-5" d="M1002.42,606.17h0a5.06,5.06,0,0,1,5.06,5.06v26a3.7,3.7,0,0,1-3.7,3.7H996.1a0,0,0,0,1,0,0V612.49A6.32,6.32,0,0,1,1002.42,606.17Z"/><rect class="cls-5" x="1143.89" y="599.54" width="7.04" height="25.92"/><rect class="cls-5" x="1143.89" y="612.5" width="16.55" height="7.71"/><rect class="cls-5" x="1143.89" y="623.95" width="7.04" height="32.22"/><path class="cls-5" d="M1143.89,712.05v5.25h-16.55a5.3,5.3,0,0,1-3.74-1.54,5.21,5.21,0,0,1-1.54-3.49v-.22Z" transform="translate(0 -86)"/><path class="cls-5" d="M1150.93,680.72v6.36a1.27,1.27,0,0,1-1.27,1.27h-4.49a1.27,1.27,0,0,1-1.28-1.27v-6.52a3.42,3.42,0,0,1,3.29-3.41h.16A3.58,3.58,0,0,1,1150.93,680.72Z" transform="translate(0 -86)"/><path class="cls-5" d="M1129.45,698.66v13.56a.89.89,0,0,1-.89.88H1123a.89.89,0,0,1-.89-.83v-13.8a3.6,3.6,0,0,1,3.61-3.59A3.78,3.78,0,0,1,1129.45,698.66Z" transform="translate(0 -86)"/><path class="cls-5" d="M1164,597.44h0a2.82,2.82,0,0,1,2.82,2.82v17.89a2.06,2.06,0,0,1-2.06,2.06h-4.28a0,0,0,0,1,0,0V601A3.52,3.52,0,0,1,1164,597.44Z"/><rect class="cls-5" x="1080.56" y="620.1" width="9.94" height="36.57"/><rect class="cls-5" x="1080.56" y="638.39" width="23.36" height="10.87"/><rect class="cls-5" x="1080.56" y="654.54" width="9.94" height="45.46"/><path class="cls-5" d="M1080.56,743.5v7.41h-23.35a7.43,7.43,0,0,1-5.27-2.17,7.32,7.32,0,0,1-2.17-4.82v0c0-.13,0-.25,0-.38Z" transform="translate(0 -86)"/><path class="cls-5" d="M1090.5,699.3v9a1.79,1.79,0,0,1-1.79,1.79h-6.34a1.8,1.8,0,0,1-1.81-1.79v-9.19a4.84,4.84,0,0,1,4.73-4.83h.13A5.07,5.07,0,0,1,1090.5,699.3Z" transform="translate(0 -86)"/><path class="cls-5" d="M1060.19,724.6v19.14a1.25,1.25,0,0,1-1.25,1.24H1051a1.25,1.25,0,0,1-1.24-1.06v0a.71.71,0,0,1,0-.14V724.35a5.08,5.08,0,0,1,5.09-5.07A5.33,5.33,0,0,1,1060.19,724.6Z" transform="translate(0 -86)"/><path class="cls-5" d="M1108.89,617.14h0a4,4,0,0,1,4,4v25.24a2.91,2.91,0,0,1-2.91,2.91h-6a0,0,0,0,1,0,0V622.11A5,5,0,0,1,1108.89,617.14Z"/><path class="cls-6" d="M972.56,682.54v99.32H966.4v-38H935.28a8,8,0,0,1-8.06-7.83v-20a6.45,6.45,0,0,1,6.47-6.44,6.79,6.79,0,0,1,6.8,6.77v19.45H966.4V688.68A6.16,6.16,0,0,1,972.56,682.54Z" transform="translate(0 -86)"/><path class="cls-7" d="M1147.18,677.15v65h-3.29V717.3h-16.55a5.3,5.3,0,0,1-3.74-1.54,5.21,5.21,0,0,1-1.54-3.49v-13.8a3.6,3.6,0,0,1,3.61-3.59,3.78,3.78,0,0,1,3.78,3.78v13.39h14.44V680.56A3.42,3.42,0,0,1,1147.18,677.15Z" transform="translate(0 -86)"/><path class="cls-8" d="M1085.29,694.25V786h-4.73V750.91h-23.35a7.43,7.43,0,0,1-5.27-2.17,7.32,7.32,0,0,1-2.17-4.82v0a.71.71,0,0,1,0-.14V724.35a5.08,5.08,0,0,1,5.09-5.07,5.33,5.33,0,0,1,5.34,5.32v18.9h20.37V699.08A4.84,4.84,0,0,1,1085.29,694.25Z" transform="translate(0 -86)"/><rect class="cls-5" x="738.86" y="641.18" width="9.82" height="30.94"/><rect class="cls-5" x="738.86" y="656.65" width="23.09" height="9.2"/><rect class="cls-5" x="738.86" y="670.31" width="9.82" height="38.46"/><path class="cls-5" d="M738.86,758.81v6.28H714.68a6.27,6.27,0,0,1-6.27-6.13v-.15Z" transform="translate(0 -86)"/><path class="cls-5" d="M748.68,722.17v6.58a1.77,1.77,0,0,1-1.77,1.77h-6.27a1.77,1.77,0,0,1-1.78-1.77V722a4.8,4.8,0,0,1,4.78-4.8h0A5,5,0,0,1,748.68,722.17Z" transform="translate(0 -86)"/><path class="cls-5" d="M718.72,743.62v15.21a1.24,1.24,0,0,1-1.23,1.24h-7.85a1.24,1.24,0,0,1-1.23-1.11v-15.6a5,5,0,0,1,5-5A5.29,5.29,0,0,1,718.72,743.62Z" transform="translate(0 -86)"/><path class="cls-5" d="M766.86,638.67h0a3.93,3.93,0,0,1,3.93,3.93V663a2.87,2.87,0,0,1-2.87,2.87h-6a0,0,0,0,1,0,0V643.58a4.91,4.91,0,0,1,4.91-4.91Z"/><rect class="cls-5" x="876.8" y="633.5" width="5.47" height="20.26"/><rect class="cls-5" x="876.8" y="643.62" width="12.86" height="6.02"/><rect class="cls-5" x="876.8" y="652.57" width="5.47" height="25.18"/><path class="cls-5" d="M876.8,740.21v4.11H863.94a4.13,4.13,0,0,1-2.91-1.21,4.07,4.07,0,0,1-1.19-2.73,1,1,0,0,1,0-.17Z" transform="translate(0 -86)"/><path class="cls-5" d="M882.27,715.73v5a1,1,0,0,1-1,1h-3.49a1,1,0,0,1-1-1v-5.09a2.68,2.68,0,0,1,2.56-2.68h.12A2.79,2.79,0,0,1,882.27,715.73Z" transform="translate(0 -86)"/><path class="cls-5" d="M865.58,729.74v10.6a.69.69,0,0,1-.69.69h-4.37a.69.69,0,0,1-.68-.65s0,0,0,0V729.6a2.8,2.8,0,0,1,2.81-2.8A2.94,2.94,0,0,1,865.58,729.74Z" transform="translate(0 -86)"/><path class="cls-5" d="M892.4,631.86h0a2.19,2.19,0,0,1,2.19,2.19v14a1.6,1.6,0,0,1-1.6,1.6h-3.33a0,0,0,0,1,0,0V634.59a2.74,2.74,0,0,1,2.74-2.74Z"/><rect class="cls-5" x="827.59" y="649.56" width="7.72" height="28.58"/><rect class="cls-5" x="827.59" y="663.85" width="18.15" height="8.5"/><rect class="cls-5" x="827.59" y="676.47" width="7.72" height="35.53"/><path class="cls-5" d="M827.59,764.79v5.79H809.44a5.78,5.78,0,0,1-4.1-1.7,5.71,5.71,0,0,1-1.69-3.76v0c0-.1,0-.2,0-.3Z" transform="translate(0 -86)"/><path class="cls-5" d="M835.31,730.24v7a1.39,1.39,0,0,1-1.4,1.39H829a1.39,1.39,0,0,1-1.4-1.39v-7.19a3.77,3.77,0,0,1,3.67-3.77h.1A3.94,3.94,0,0,1,835.31,730.24Z" transform="translate(0 -86)"/><path class="cls-5" d="M811.75,750v15a1,1,0,0,1-1,1h-6.17a1,1,0,0,1-1-.83v0a.49.49,0,0,1,0-.12V749.82a4,4,0,0,1,4-4A4.15,4.15,0,0,1,811.75,750Z" transform="translate(0 -86)"/><path class="cls-5" d="M849.6,647.25h0a3.09,3.09,0,0,1,3.09,3.09v19.75a2.26,2.26,0,0,1-2.26,2.26h-4.69a0,0,0,0,1,0,0V651.11A3.86,3.86,0,0,1,849.6,647.25Z"/><path class="cls-6" d="M743.64,717.15v77.62h-4.78V765.09H714.68a6.27,6.27,0,0,1-6.27-6.13v-15.6a5,5,0,0,1,5-5,5.29,5.29,0,0,1,5.29,5.29v15.19h20.14V722A4.8,4.8,0,0,1,743.64,717.15Z" transform="translate(0 -86)"/><path class="cls-7" d="M879.36,712.93v50.82H876.8V744.32H863.94a4.13,4.13,0,0,1-2.91-1.21,4.07,4.07,0,0,1-1.19-2.73s0,0,0,0V729.6a2.8,2.8,0,0,1,2.81-2.8,2.94,2.94,0,0,1,2.94,2.94v10.47H876.8v-24.6A2.68,2.68,0,0,1,879.36,712.93Z" transform="translate(0 -86)"/><path class="cls-8" d="M831.26,726.3V798h-3.67V770.58H809.44a5.78,5.78,0,0,1-4.1-1.7,5.71,5.71,0,0,1-1.69-3.76v0a.49.49,0,0,1,0-.12V749.82a4,4,0,0,1,4-4,4.15,4.15,0,0,1,4.15,4.16v14.77h15.84V730.07A3.77,3.77,0,0,1,831.26,726.3Z" transform="translate(0 -86)"/><rect class="cls-5" x="206.48" y="610.83" width="7.41" height="23.21"/><rect class="cls-5" x="206.48" y="622.44" width="17.42" height="6.9"/><rect class="cls-5" x="206.48" y="632.68" width="7.41" height="28.86"/><path class="cls-5" d="M206.48,720.57v4.7H188.24a4.73,4.73,0,0,1-4.73-4.59v-.1h23Z" transform="translate(0 -86)"/><path class="cls-5" d="M213.89,693.07V698a1.34,1.34,0,0,1-1.34,1.33h-4.72a1.34,1.34,0,0,1-1.35-1.33v-5.1a3.61,3.61,0,0,1,3.61-3.6h0A3.77,3.77,0,0,1,213.89,693.07Z" transform="translate(0 -86)"/><path class="cls-5" d="M191.29,709.16v11.42a.93.93,0,0,1-.93.93h-5.92a.94.94,0,0,1-.93-.83V709a3.78,3.78,0,0,1,3.79-3.77A4,4,0,0,1,191.29,709.16Z" transform="translate(0 -86)"/><path class="cls-5" d="M227.6,609h0a3,3,0,0,1,3,3v15.25a2.17,2.17,0,0,1-2.17,2.17h-4.5a0,0,0,0,1,0,0V612.66A3.7,3.7,0,0,1,227.6,609Z"/><rect class="cls-5" x="310.55" y="605.07" width="4.13" height="15.2"/><rect class="cls-5" x="310.55" y="612.67" width="9.7" height="4.52"/><rect class="cls-5" x="310.55" y="619.37" width="4.13" height="18.89"/><path class="cls-5" d="M310.55,706.61v3.08h-9.71a3.1,3.1,0,0,1-2.19-.91,3,3,0,0,1-.9-2v-.13Z" transform="translate(0 -86)"/><path class="cls-5" d="M314.68,688.24V692a.75.75,0,0,1-.75.74H311.3a.74.74,0,0,1-.75-.74v-3.82a2,2,0,0,1,1.92-2h.1A2.11,2.11,0,0,1,314.68,688.24Z" transform="translate(0 -86)"/><path class="cls-5" d="M302.08,698.75v8a.51.51,0,0,1-.52.51h-3.29a.52.52,0,0,1-.52-.48v-8.09a2.11,2.11,0,0,1,2.11-2.11A2.21,2.21,0,0,1,302.08,698.75Z" transform="translate(0 -86)"/><path class="cls-5" d="M322.32,603.84h0a1.65,1.65,0,0,1,1.65,1.65V616a1.21,1.21,0,0,1-1.21,1.21h-2.51a0,0,0,0,1,0,0V605.9A2.06,2.06,0,0,1,322.32,603.84Z"/><rect class="cls-5" x="273.42" y="617.12" width="5.83" height="21.44"/><rect class="cls-5" x="273.42" y="627.84" width="13.69" height="6.37"/><rect class="cls-5" x="273.42" y="637.31" width="5.83" height="26.66"/><path class="cls-5" d="M273.42,725.05v4.34H259.73a4.39,4.39,0,0,1-3.1-1.27,4.32,4.32,0,0,1-1.27-2.82v-.25Z" transform="translate(0 -86)"/><path class="cls-5" d="M279.24,699.13v5.26a1,1,0,0,1-1.05,1.05h-3.72a1,1,0,0,1-1.05-1.05V699a2.83,2.83,0,0,1,2.77-2.83h.08A3,3,0,0,1,279.24,699.13Z" transform="translate(0 -86)"/><path class="cls-5" d="M261.47,714v11.21a.73.73,0,0,1-.73.74h-4.65a.74.74,0,0,1-.73-.62V713.82a3,3,0,0,1,3-3A3.12,3.12,0,0,1,261.47,714Z" transform="translate(0 -86)"/><path class="cls-5" d="M290,615.38h0a2.33,2.33,0,0,1,2.33,2.33v14.8a1.7,1.7,0,0,1-1.7,1.7h-3.54a0,0,0,0,1,0,0V618.3a2.91,2.91,0,0,1,2.91-2.91Z"/><path class="cls-6" d="M210.09,689.31v58.23h-3.61V725.27H188.24a4.73,4.73,0,0,1-4.73-4.59V709a3.78,3.78,0,0,1,3.79-3.77,4,4,0,0,1,4,4v11.41h15.19V692.91A3.61,3.61,0,0,1,210.09,689.31Z" transform="translate(0 -86)"/><path class="cls-7" d="M312.47,686.14v38.13h-1.92V709.69h-9.71a3.1,3.1,0,0,1-2.19-.91,3,3,0,0,1-.9-2v-8.09a2.11,2.11,0,0,1,2.11-2.11,2.21,2.21,0,0,1,2.22,2.21v7.86h8.47V688.15A2,2,0,0,1,312.47,686.14Z" transform="translate(0 -86)"/><path class="cls-8" d="M276.19,696.17V750h-2.77V729.39H259.73a4.39,4.39,0,0,1-3.1-1.27,4.32,4.32,0,0,1-1.27-2.82V713.82a3,3,0,0,1,3-3,3.12,3.12,0,0,1,3.13,3.12v11.08h11.95V699A2.83,2.83,0,0,1,276.19,696.17Z" transform="translate(0 -86)"/><rect class="cls-5" x="73.08" y="629.48" width="5.76" height="18.14"/><rect class="cls-5" x="73.08" y="638.55" width="13.53" height="5.39"/><rect class="cls-5" x="73.08" y="646.55" width="5.76" height="22.55"/><path class="cls-5" d="M73.08,734v3.67H58.9a3.65,3.65,0,0,1-3.67-3.59.17.17,0,0,1,0-.07H73.08Z" transform="translate(0 -86)"/><path class="cls-5" d="M78.84,712.54v3.86a1,1,0,0,1-1,1H74.12a1,1,0,0,1-1-1v-4a2.8,2.8,0,0,1,2.8-2.81h0A2.94,2.94,0,0,1,78.84,712.54Z" transform="translate(0 -86)"/><path class="cls-5" d="M61.27,725.11V734a.72.72,0,0,1-.72.72H56a.71.71,0,0,1-.72-.65.17.17,0,0,1,0-.07V725a3,3,0,0,1,3-2.94A3.09,3.09,0,0,1,61.27,725.11Z" transform="translate(0 -86)"/><path class="cls-5" d="M89.49,628h0a2.3,2.3,0,0,1,2.3,2.3v11.94a1.68,1.68,0,0,1-1.68,1.68h-3.5a0,0,0,0,1,0,0V630.89A2.88,2.88,0,0,1,89.49,628Z"/><rect class="cls-5" x="153.95" y="624.97" width="3.21" height="11.88"/><rect class="cls-5" x="153.95" y="630.91" width="7.54" height="3.53"/><rect class="cls-5" x="153.95" y="636.15" width="3.21" height="14.76"/><path class="cls-5" d="M154,723.12v2.4h-7.54a2.41,2.41,0,0,1-1.7-.7,2.34,2.34,0,0,1-.7-1.6.34.34,0,0,1,0-.1Z" transform="translate(0 -86)"/><path class="cls-5" d="M157.16,708.77v2.91a.58.58,0,0,1-.58.58h-2.05a.58.58,0,0,1-.58-.58v-3a1.56,1.56,0,0,1,1.5-1.56h.07A1.64,1.64,0,0,1,157.16,708.77Z" transform="translate(0 -86)"/><path class="cls-5" d="M147.37,717v6.22a.4.4,0,0,1-.4.4h-2.56a.4.4,0,0,1-.4-.38V716.9a1.65,1.65,0,0,1,1.65-1.65A1.73,1.73,0,0,1,147.37,717Z" transform="translate(0 -86)"/><path class="cls-5" d="M163.1,624h0a1.28,1.28,0,0,1,1.28,1.28v8.21a.94.94,0,0,1-.94.94H161.5a0,0,0,0,1,0,0v-8.83A1.6,1.6,0,0,1,163.1,624Z"/><rect class="cls-5" x="125.1" y="634.39" width="4.53" height="16.76"/><rect class="cls-5" x="125.1" y="642.77" width="10.64" height="4.98"/><rect class="cls-5" x="125.1" y="650.17" width="4.53" height="20.83"/><path class="cls-5" d="M125.1,737.53v3.39H114.46a3.39,3.39,0,0,1-3.4-3.2v-.19Z" transform="translate(0 -86)"/><path class="cls-5" d="M129.63,717.27v4.12a.82.82,0,0,1-.82.82h-2.89a.82.82,0,0,1-.82-.82v-4.22a2.21,2.21,0,0,1,2.15-2.21h.06A2.32,2.32,0,0,1,129.63,717.27Z" transform="translate(0 -86)"/><path class="cls-5" d="M115.81,728.87v8.77a.57.57,0,0,1-.57.57h-3.61a.58.58,0,0,1-.57-.49v-9a2.32,2.32,0,0,1,2.32-2.32A2.43,2.43,0,0,1,115.81,728.87Z" transform="translate(0 -86)"/><path class="cls-5" d="M138,633h0a1.81,1.81,0,0,1,1.81,1.81v11.58a1.32,1.32,0,0,1-1.32,1.32h-2.75a0,0,0,0,1,0,0V635.3A2.26,2.26,0,0,1,138,633Z"/><path class="cls-6" d="M75.88,709.6v45.5h-2.8V737.7H58.9a3.65,3.65,0,0,1-3.67-3.59.17.17,0,0,1,0-.07V725a3,3,0,0,1,3-2.94,3.09,3.09,0,0,1,3.1,3.09V734H73.08V712.41A2.8,2.8,0,0,1,75.88,709.6Z" transform="translate(0 -86)"/><path class="cls-7" d="M155.45,707.13v29.79H154v-11.4h-7.54a2.41,2.41,0,0,1-1.7-.7,2.34,2.34,0,0,1-.7-1.6V716.9a1.65,1.65,0,0,1,1.65-1.65,1.73,1.73,0,0,1,1.72,1.73v6.14H154V708.69A1.56,1.56,0,0,1,155.45,707.13Z" transform="translate(0 -86)"/><path class="cls-8" d="M127.25,715v42H125.1V740.92H114.46a3.39,3.39,0,0,1-3.4-3.2v-9a2.32,2.32,0,0,1,2.32-2.32,2.43,2.43,0,0,1,2.43,2.44v8.66h9.29V717.17A2.21,2.21,0,0,1,127.25,715Z" transform="translate(0 -86)"/><rect class="cls-5" x="1682.61" y="628.23" width="6.99" height="21.9"/><rect class="cls-5" x="1682.61" y="639.18" width="16.43" height="6.51"/><rect class="cls-5" x="1682.61" y="648.85" width="6.99" height="27.23"/><path class="cls-5" d="M1682.61,736.62v4.44H1665.4a4.45,4.45,0,0,1-3.16-1.3,4.39,4.39,0,0,1-1.3-3,.28.28,0,0,1,0-.09v0Z" transform="translate(0 -86)"/><path class="cls-5" d="M1689.6,710.68v4.66a1.27,1.27,0,0,1-1.26,1.26h-4.46a1.26,1.26,0,0,1-1.27-1.26v-4.82a3.4,3.4,0,0,1,3.4-3.39h0A3.56,3.56,0,0,1,1689.6,710.68Z" transform="translate(0 -86)"/><path class="cls-5" d="M1668.27,725.86v10.78a.87.87,0,0,1-.87.87h-5.59a.88.88,0,0,1-.87-.78.28.28,0,0,1,0-.09v-11a3.57,3.57,0,0,1,3.58-3.56A3.75,3.75,0,0,1,1668.27,725.86Z" transform="translate(0 -86)"/><path class="cls-5" d="M1702.54,626.45h0a2.8,2.8,0,0,1,2.8,2.8v14.39a2,2,0,0,1-2,2H1699a0,0,0,0,1,0,0V629.95a3.5,3.5,0,0,1,3.5-3.5Z"/><rect class="cls-5" x="1780.8" y="622.79" width="3.89" height="14.34"/><rect class="cls-5" x="1780.8" y="629.96" width="9.16" height="4.26"/><rect class="cls-5" x="1780.8" y="636.29" width="3.89" height="17.83"/><path class="cls-5" d="M1780.8,723.45v2.91h-9.16a2.92,2.92,0,0,1-2.07-.86,2.85,2.85,0,0,1-.85-1.93v-.12Z" transform="translate(0 -86)"/><path class="cls-5" d="M1784.69,706.12v3.52a.7.7,0,0,1-.7.7h-2.49a.7.7,0,0,1-.7-.7V706a1.9,1.9,0,0,1,1.82-1.89h.08A2,2,0,0,1,1784.69,706.12Z" transform="translate(0 -86)"/><path class="cls-5" d="M1772.81,716v7.51a.49.49,0,0,1-.49.48h-3.11a.49.49,0,0,1-.49-.46v-7.63a2,2,0,0,1,2-2A2.09,2.09,0,0,1,1772.81,716Z" transform="translate(0 -86)"/><path class="cls-5" d="M1791.9,621.63h0a1.56,1.56,0,0,1,1.56,1.56v9.9a1.14,1.14,0,0,1-1.14,1.14H1790a0,0,0,0,1,0,0V623.58A1.95,1.95,0,0,1,1791.9,621.63Z"/><rect class="cls-5" x="1745.77" y="634.16" width="5.5" height="20.23"/><rect class="cls-5" x="1745.77" y="644.28" width="12.92" height="6.01"/><rect class="cls-5" x="1745.77" y="653.21" width="5.5" height="25.15"/><path class="cls-5" d="M1745.77,740.85V745h-12.92a4.14,4.14,0,0,1-2.92-1.2,4.06,4.06,0,0,1-1.2-2.66v0c0-.07,0-.14,0-.21Z" transform="translate(0 -86)"/><path class="cls-5" d="M1751.26,716.4v5a1,1,0,0,1-1,1h-3.51a1,1,0,0,1-1-1v-5.08a2.66,2.66,0,0,1,2.61-2.67h.07A2.8,2.8,0,0,1,1751.26,716.4Z" transform="translate(0 -86)"/><path class="cls-5" d="M1734.5,730.4V741a.69.69,0,0,1-.7.69h-4.39a.69.69,0,0,1-.68-.58v0a.22.22,0,0,1,0-.08V730.25a2.81,2.81,0,0,1,2.82-2.8A3,3,0,0,1,1734.5,730.4Z" transform="translate(0 -86)"/><path class="cls-5" d="M1761.44,632.52h0a2.2,2.2,0,0,1,2.2,2.2v14a1.61,1.61,0,0,1-1.61,1.61h-3.34a0,0,0,0,1,0,0v-15A2.75,2.75,0,0,1,1761.44,632.52Z"/><path class="cls-6" d="M1686,707.13v54.94h-3.4v-21H1665.4a4.45,4.45,0,0,1-3.16-1.3,4.39,4.39,0,0,1-1.3-3,.28.28,0,0,1,0-.09v-11a3.57,3.57,0,0,1,3.58-3.56,3.75,3.75,0,0,1,3.76,3.74v10.76h14.34v-26.1A3.4,3.4,0,0,1,1686,707.13Z" transform="translate(0 -86)"/><path class="cls-7" d="M1782.62,704.14v36h-1.82V726.36h-9.16a2.92,2.92,0,0,1-2.07-.86,2.85,2.85,0,0,1-.85-1.93v-7.63a2,2,0,0,1,2-2,2.09,2.09,0,0,1,2.09,2.08v7.41h8V706A1.9,1.9,0,0,1,1782.62,704.14Z" transform="translate(0 -86)"/><path class="cls-8" d="M1748.38,713.61v50.75h-2.61V745h-12.92a4.14,4.14,0,0,1-2.92-1.2,4.06,4.06,0,0,1-1.2-2.66v0a.22.22,0,0,1,0-.08V730.25a2.81,2.81,0,0,1,2.82-2.8,3,3,0,0,1,3,2.95v10.45h11.27V716.28A2.66,2.66,0,0,1,1748.38,713.61Z" transform="translate(0 -86)"/><rect class="cls-5" x="1556.73" y="645.82" width="5.43" height="17.11"/><rect class="cls-5" x="1556.73" y="654.38" width="12.77" height="5.09"/><rect class="cls-5" x="1556.73" y="661.93" width="5.43" height="21.28"/><path class="cls-5" d="M1556.73,749.32v3.47h-13.37a3.45,3.45,0,0,1-3.47-3.39v-.07h16.84Z" transform="translate(0 -86)"/><path class="cls-5" d="M1562.17,729.05v3.64a1,1,0,0,1-1,1h-3.46a1,1,0,0,1-1-1v-3.76a2.66,2.66,0,0,1,2.65-2.66h0A2.79,2.79,0,0,1,1562.17,729.05Z" transform="translate(0 -86)"/><path class="cls-5" d="M1545.59,740.91v8.42a.68.68,0,0,1-.68.69h-4.34a.69.69,0,0,1-.68-.62v-8.63a2.78,2.78,0,0,1,2.78-2.78A2.92,2.92,0,0,1,1545.59,740.91Z" transform="translate(0 -86)"/><path class="cls-5" d="M1572.22,644.44h0a2.17,2.17,0,0,1,2.17,2.17v11.27a1.59,1.59,0,0,1-1.59,1.59h-3.3a0,0,0,0,1,0,0V647.15a2.72,2.72,0,0,1,2.72-2.72Z"/><rect class="cls-5" x="1633.04" y="641.57" width="3.03" height="11.21"/><rect class="cls-5" x="1633.04" y="647.17" width="7.12" height="3.33"/><rect class="cls-5" x="1633.04" y="652.12" width="3.03" height="13.93"/><path class="cls-5" d="M1633,739v2.27h-7.11a2.23,2.23,0,0,1-1.61-.67,2.19,2.19,0,0,1-.66-1.5V739Z" transform="translate(0 -86)"/><path class="cls-5" d="M1636.07,725.49v2.75a.54.54,0,0,1-.55.54h-1.93a.55.55,0,0,1-.55-.54v-2.82a1.48,1.48,0,0,1,1.42-1.48h.07A1.54,1.54,0,0,1,1636.07,725.49Z" transform="translate(0 -86)"/><path class="cls-5" d="M1626.84,733.24v5.86a.39.39,0,0,1-.39.38H1624a.38.38,0,0,1-.38-.35v-6a1.55,1.55,0,0,1,1.55-1.55A1.63,1.63,0,0,1,1626.84,733.24Z" transform="translate(0 -86)"/><path class="cls-5" d="M1641.67,640.66h0a1.21,1.21,0,0,1,1.21,1.21v7.74a.89.89,0,0,1-.89.89h-1.84a0,0,0,0,1,0,0v-8.33A1.51,1.51,0,0,1,1641.67,640.66Z"/><rect class="cls-5" x="1605.82" y="650.46" width="4.27" height="15.81"/><rect class="cls-5" x="1605.82" y="658.37" width="10.04" height="4.7"/><rect class="cls-5" x="1605.82" y="665.35" width="4.27" height="19.65"/><path class="cls-5" d="M1605.82,752.63v3.2h-10a3.2,3.2,0,0,1-2.27-.94,3.16,3.16,0,0,1-.93-2.08v0a.86.86,0,0,1,0-.16Z" transform="translate(0 -86)"/><path class="cls-5" d="M1610.09,733.52v3.88a.78.78,0,0,1-.77.77h-2.73a.77.77,0,0,1-.77-.77v-4a2.07,2.07,0,0,1,2-2.08h.06A2.19,2.19,0,0,1,1610.09,733.52Z" transform="translate(0 -86)"/><path class="cls-5" d="M1597.06,744.46v8.27a.54.54,0,0,1-.54.54h-3.41a.54.54,0,0,1-.53-.46v0a.13.13,0,0,1,0-.06v-8.38a2.19,2.19,0,0,1,2.19-2.19A2.3,2.3,0,0,1,1597.06,744.46Z" transform="translate(0 -86)"/><path class="cls-5" d="M1618,649.18h0a1.71,1.71,0,0,1,1.71,1.71v10.93a1.25,1.25,0,0,1-1.25,1.25h-2.6a0,0,0,0,1,0,0V651.31A2.14,2.14,0,0,1,1618,649.18Z"/><path class="cls-6" d="M1559.38,726.27v42.94h-2.65V752.79h-13.37a3.45,3.45,0,0,1-3.47-3.39v-8.63a2.78,2.78,0,0,1,2.78-2.78,2.92,2.92,0,0,1,2.92,2.92v8.41h11.14V728.93A2.66,2.66,0,0,1,1559.38,726.27Z" transform="translate(0 -86)"/><path class="cls-7" d="M1634.46,723.94v28.11H1633V741.3h-7.11a2.23,2.23,0,0,1-1.61-.67,2.19,2.19,0,0,1-.66-1.5v-6a1.55,1.55,0,0,1,1.55-1.55,1.63,1.63,0,0,1,1.63,1.63V739h6.2V725.42A1.48,1.48,0,0,1,1634.46,723.94Z" transform="translate(0 -86)"/><path class="cls-8" d="M1607.85,731.34V771h-2V755.83h-10a3.2,3.2,0,0,1-2.27-.94,3.16,3.16,0,0,1-.93-2.08v0a.13.13,0,0,1,0-.06v-8.38a2.19,2.19,0,0,1,2.19-2.19,2.3,2.3,0,0,1,2.3,2.3v8.17h8.76V733.42A2.07,2.07,0,0,1,1607.85,731.34Z" transform="translate(0 -86)"/><rect class="cls-5" x="1262.22" y="629.03" width="4.1" height="12.84"/><rect class="cls-5" x="1262.22" y="635.45" width="9.63" height="3.82"/><rect class="cls-5" x="1262.22" y="641.12" width="4.1" height="15.96"/><path class="cls-5" d="M1262.22,728.16v2.61h-10.09a2.58,2.58,0,0,1-1.85-.77,2.53,2.53,0,0,1-.76-1.78.07.07,0,0,1,0-.05h12.71Z" transform="translate(0 -86)"/><path class="cls-5" d="M1266.32,713v2.73a.74.74,0,0,1-.74.74H1263a.74.74,0,0,1-.74-.74v-2.82a2,2,0,0,1,2-2h0A2.09,2.09,0,0,1,1266.32,713Z" transform="translate(0 -86)"/><path class="cls-5" d="M1253.82,721.85v6.32a.51.51,0,0,1-.52.51H1250a.5.5,0,0,1-.51-.46.07.07,0,0,1,0-.05v-6.42a2.1,2.1,0,0,1,2.1-2.09A2.2,2.2,0,0,1,1253.82,721.85Z" transform="translate(0 -86)"/><path class="cls-5" d="M1273.91,628h0a1.64,1.64,0,0,1,1.64,1.64v8.44a1.2,1.2,0,0,1-1.2,1.2h-2.49a0,0,0,0,1,0,0V630a2,2,0,0,1,2-2Z"/><rect class="cls-5" x="1319.79" y="625.84" width="2.28" height="8.41"/><rect class="cls-5" x="1319.79" y="630.05" width="5.37" height="2.5"/><rect class="cls-5" x="1319.79" y="633.76" width="2.28" height="10.45"/><path class="cls-5" d="M1319.79,720.44v1.71h-5.37a1.71,1.71,0,0,1-1.71-1.64v-.07Z" transform="translate(0 -86)"/><path class="cls-5" d="M1322.07,710.28v2.06a.41.41,0,0,1-.41.41h-1.46a.41.41,0,0,1-.41-.41v-2.11a1.11,1.11,0,0,1,1.07-1.11h.05A1.16,1.16,0,0,1,1322.07,710.28Z" transform="translate(0 -86)"/><path class="cls-5" d="M1315.11,716.1v4.4a.29.29,0,0,1-.29.28H1313a.29.29,0,0,1-.29-.27h0V716a1.17,1.17,0,0,1,1.17-1.17A1.23,1.23,0,0,1,1315.11,716.1Z" transform="translate(0 -86)"/><path class="cls-5" d="M1326.3,625.16h0a.91.91,0,0,1,.91.91v5.8a.67.67,0,0,1-.67.67h-1.39a0,0,0,0,1,0,0v-6.24a1.14,1.14,0,0,1,1.14-1.14Z"/><rect class="cls-5" x="1299.25" y="632.51" width="3.22" height="11.86"/><rect class="cls-5" x="1299.25" y="638.44" width="7.58" height="3.53"/><rect class="cls-5" x="1299.25" y="643.68" width="3.22" height="14.75"/><path class="cls-5" d="M1299.25,730.64v2.41h-7.57a2.43,2.43,0,0,1-2.42-2.27h0v-.13Z" transform="translate(0 -86)"/><path class="cls-5" d="M1302.47,716.3v2.92a.58.58,0,0,1-.58.58h-2.06a.58.58,0,0,1-.58-.58v-3a1.56,1.56,0,0,1,1.53-1.56h0A1.63,1.63,0,0,1,1302.47,716.3Z" transform="translate(0 -86)"/><path class="cls-5" d="M1292.64,724.51v6.21a.4.4,0,0,1-.4.4h-2.58a.41.41,0,0,1-.4-.34h0v-6.34a1.64,1.64,0,0,1,1.65-1.64A1.72,1.72,0,0,1,1292.64,724.51Z" transform="translate(0 -86)"/><path class="cls-5" d="M1308.44,631.55h0a1.29,1.29,0,0,1,1.29,1.29V641a.94.94,0,0,1-.94.94h-2a0,0,0,0,1,0,0v-8.81a1.61,1.61,0,0,1,1.61-1.61Z"/><path class="cls-6" d="M1264.22,710.87v32.21h-2V730.77h-10.09a2.58,2.58,0,0,1-1.85-.77,2.53,2.53,0,0,1-.76-1.78.07.07,0,0,1,0-.05v-6.42a2.1,2.1,0,0,1,2.1-2.09,2.2,2.2,0,0,1,2.21,2.19v6.31h8.4v-15.3A2,2,0,0,1,1264.22,710.87Z" transform="translate(0 -86)"/><path class="cls-7" d="M1320.86,709.12v21.09h-1.07v-8.06h-5.37a1.71,1.71,0,0,1-1.71-1.64h0V716a1.17,1.17,0,0,1,1.17-1.17,1.23,1.23,0,0,1,1.23,1.23v4.34h4.68V710.23A1.11,1.11,0,0,1,1320.86,709.12Z" transform="translate(0 -86)"/><path class="cls-8" d="M1300.78,714.67v29.76h-1.53V733.05h-7.57a2.43,2.43,0,0,1-2.42-2.27h0v-6.34a1.64,1.64,0,0,1,1.65-1.64,1.72,1.72,0,0,1,1.73,1.72v6.13h6.61V716.23A1.56,1.56,0,0,1,1300.78,714.67Z" transform="translate(0 -86)"/><rect class="cls-5" x="1188.42" y="639.35" width="3.19" height="10.03"/><rect class="cls-5" x="1188.42" y="644.37" width="7.49" height="2.98"/><rect class="cls-5" x="1188.42" y="648.8" width="3.19" height="12.47"/><path class="cls-5" d="M1188.42,735.61v2h-7.84a2,2,0,0,1-2-2,.08.08,0,0,1,0,0h9.88Z" transform="translate(0 -86)"/><path class="cls-5" d="M1191.61,723.72v2.14a.57.57,0,0,1-.58.57h-2a.57.57,0,0,1-.58-.57v-2.21a1.55,1.55,0,0,1,1.55-1.55h0A1.62,1.62,0,0,1,1191.61,723.72Z" transform="translate(0 -86)"/><path class="cls-5" d="M1181.89,730.68v4.94a.4.4,0,0,1-.4.4H1179a.4.4,0,0,1-.4-.36.08.08,0,0,1,0,0v-5a1.63,1.63,0,0,1,1.64-1.63A1.71,1.71,0,0,1,1181.89,730.68Z" transform="translate(0 -86)"/><path class="cls-5" d="M1197.5,638.54h0a1.27,1.27,0,0,1,1.27,1.27v6.61a.93.93,0,0,1-.93.93h-1.94a0,0,0,0,1,0,0v-7.22a1.59,1.59,0,0,1,1.59-1.59Z"/><rect class="cls-5" x="1233.16" y="636.86" width="1.77" height="6.57"/><rect class="cls-5" x="1233.16" y="640.14" width="4.17" height="1.95"/><rect class="cls-5" x="1233.16" y="643.04" width="1.77" height="8.17"/><path class="cls-5" d="M1233.16,729.58v1.33H1229a1.32,1.32,0,0,1-.94-.39,1.31,1.31,0,0,1-.39-.89v0Z" transform="translate(0 -86)"/><path class="cls-5" d="M1234.94,721.64v1.61a.33.33,0,0,1-.32.32h-1.14a.33.33,0,0,1-.32-.32v-1.66a.87.87,0,0,1,.83-.86h0A.91.91,0,0,1,1234.94,721.64Z" transform="translate(0 -86)"/><path class="cls-5" d="M1229.52,726.18v3.44a.22.22,0,0,1-.22.22h-1.42a.22.22,0,0,1-.22-.21h0v-3.49a.91.91,0,0,1,.91-.91A1,1,0,0,1,1229.52,726.18Z" transform="translate(0 -86)"/><path class="cls-5" d="M1238.22,636.32h0a.71.71,0,0,1,.71.71v4.54a.52.52,0,0,1-.52.52h-1.08a0,0,0,0,1,0,0v-4.88A.89.89,0,0,1,1238.22,636.32Z"/><rect class="cls-5" x="1217.2" y="642.07" width="2.51" height="9.27"/><rect class="cls-5" x="1217.2" y="646.7" width="5.89" height="2.76"/><rect class="cls-5" x="1217.2" y="650.8" width="2.51" height="11.52"/><path class="cls-5" d="M1217.2,737.55v1.88h-5.89a1.88,1.88,0,0,1-1.87-1.78h0s0-.06,0-.09Z" transform="translate(0 -86)"/><path class="cls-5" d="M1219.7,726.34v2.28a.45.45,0,0,1-.45.45h-1.6a.45.45,0,0,1-.45-.45v-2.33a1.23,1.23,0,0,1,1.19-1.23h0A1.28,1.28,0,0,1,1219.7,726.34Z" transform="translate(0 -86)"/><path class="cls-5" d="M1212.06,732.76v4.85a.31.31,0,0,1-.31.31h-2a.3.3,0,0,1-.31-.27h0a0,0,0,0,1,0,0v-4.92a1.28,1.28,0,0,1,1.29-1.28A1.34,1.34,0,0,1,1212.06,732.76Z" transform="translate(0 -86)"/><path class="cls-5" d="M1224.34,641.32h0a1,1,0,0,1,1,1v6.41a.73.73,0,0,1-.73.73h-1.52a0,0,0,0,1,0,0v-6.89A1.25,1.25,0,0,1,1224.34,641.32Z"/><path class="cls-6" d="M1190,722.1v25.17h-1.55v-9.63h-7.84a2,2,0,0,1-2-2,.08.08,0,0,1,0,0v-5a1.63,1.63,0,0,1,1.64-1.63,1.71,1.71,0,0,1,1.71,1.71v4.93h6.53v-12A1.55,1.55,0,0,1,1190,722.1Z" transform="translate(0 -86)"/><path class="cls-7" d="M1234,720.73v16.48h-.83v-6.3H1229a1.32,1.32,0,0,1-.94-.39,1.31,1.31,0,0,1-.39-.89h0v-3.49a.91.91,0,0,1,.91-.91,1,1,0,0,1,1,1v3.4h3.64v-8A.87.87,0,0,1,1234,720.73Z" transform="translate(0 -86)"/><path class="cls-8" d="M1218.39,725.06v23.26h-1.19v-8.89h-5.89a1.88,1.88,0,0,1-1.87-1.78h0a0,0,0,0,1,0,0v-4.92a1.28,1.28,0,0,1,1.29-1.28,1.34,1.34,0,0,1,1.34,1.35v4.79h5.14V726.29A1.23,1.23,0,0,1,1218.39,725.06Z" transform="translate(0 -86)"/></g></svg>