<svg id="Dad_Son" data-name="Dad &amp; Son" xmlns="http://www.w3.org/2000/svg" viewBox="0 0 263.16 486.42"><defs><style>.cls-1{fill:#3d290d;}.cls-2,.cls-5{fill:#e2c9a1;}.cls-2{stroke:#d1b27c;stroke-miterlimit:10;}.cls-3{fill:#fff;}.cls-4{fill:#05f;}.cls-6{fill:#fcfcfc;}.cls-7{fill:#433828;}.cls-8{fill:#7f643d;}.cls-9{fill:#21170c;}.cls-10{fill:#561212;}.cls-11{fill:#f70b0b;}.cls-12{fill:#3f341b;}</style></defs><title>Son1</title><g id="Bags"><rect class="cls-1" x="51.98" y="212.42" width="100" height="132" rx="12" ry="12"/></g><g id="Son"><rect class="cls-2" x="76.32" y="441.97" width="15.38" height="20.87"/><rect class="cls-2" x="111.88" y="441.47" width="15.38" height="20.87"/><ellipse class="cls-3" cx="346.98" cy="940.63" rx="15.54" ry="26.45" transform="translate(-860.38 581.84) rotate(-76.15)"/><path class="cls-4" d="M281,689c-18.72,44.36-11.26,107.47-7.78,156.18,1,14,1.63,31.89,12.61,43.19,12.75,13.12,22.16,15.73,37.73,6,19.65-12.23,25.67-48.22,30.67-70.6,11.43-51.19,5-96.42-10.33-135.41" transform="translate(-211.02 -470.58)"/><ellipse class="cls-5" cx="100.17" cy="120.41" rx="80.27" ry="105.12"/><path class="cls-3" d="M305.48,569.13c0,15.23-9.46,27.58-21.12,27.58s-21.12-12.35-21.12-27.58A33.53,33.53,0,0,1,267,553.47c3.81-7.21,10.18-11.93,17.39-11.93s13.58,4.72,17.39,11.93A33.65,33.65,0,0,1,305.48,569.13Z" transform="translate(-211.02 -470.58)"/><ellipse class="cls-6" cx="130.49" cy="98.54" rx="21.12" ry="27.58"/><path class="cls-6" d="M336,630.92a38.43,38.43,0,0,1-.21,4.06c-.09.84-.2,1.67-.34,2.48s-.32,1.68-.52,2.49a28.22,28.22,0,0,1-3.2,7.9,19.32,19.32,0,0,1-1.41,2c-2.46,3.12-5.54,5-8.89,5H301.21c-3.34,0-6.41-1.85-8.87-5a26.29,26.29,0,0,1-4.59-9.94c-.2-.81-.37-1.64-.52-2.49s-.25-1.64-.34-2.48a39.72,39.72,0,0,1-.2-4v-1.49h48.45C335.62,629.51,336,630.14,336,630.92Z" transform="translate(-211.02 -470.58)"/><ellipse cx="73.33" cy="108.48" rx="13.67" ry="17.85"/><ellipse cx="130.49" cy="108.48" rx="13.67" ry="17.85"/><ellipse class="cls-3" cx="71.35" cy="104.01" rx="3.23" ry="4.22"/><ellipse class="cls-3" cx="127.51" cy="103.02" rx="3.23" ry="4.22"/><path class="cls-7" d="M250.06,499.51c-2.28,2.94-4.61,6-5.78,9.5s-1,7.75,1.45,10.59c3.23,3.78,9.37,3.79,13.69,1.33s7.22-6.77,9.84-11c-3,4-6.06,9.31-3.58,13.65,2.33,4.06,8.48,4.33,12.41,1.77s6.13-7,8.17-11.18a13.76,13.76,0,0,0-2,12.86,12.16,12.16,0,0,0,10.21,7.8c4.36.3,8.62-2.05,11.35-5.46a17.45,17.45,0,0,0,3.54-13.55,11.34,11.34,0,1,0,19.77-2c2.76,3.32,5.56,6.69,9.16,9.06s8.18,3.63,12.29,2.33,7.33-5.67,6.41-9.88c-1-4.61-6-7-10.35-8.78a44.06,44.06,0,0,0,24.57,4.47,15.34,15.34,0,0,0,6.65-2c5.18-3.29,5.61-11.55,1.48-16.09-3.12-3.43-7.89-4.8-12.44-5.7a101.91,101.91,0,0,0-29.32-1.45c2.91-.22,5.9-.46,8.5-1.78s4.7-4,4.41-6.94-2.68-5-5.33-5.85-5.52-.73-8.3-.57c-31.62,1.88-63.76,3.86-93.54,14.66a18.75,18.75,0,0,0-6.78,3.66c-1.87,1.79-3,4.6-2.11,7s3.28,3.73,5.71,4.06a20.28,20.28,0,0,0,7.29-.76" transform="translate(-211.02 -470.58)"/><path class="cls-8" d="M311.14,593a118.15,118.15,0,0,0-13.29,22.15,1.51,1.51,0,0,0,2,2,17,17,0,0,1,16.22-.72c1.74.83,3.26-1.75,1.52-2.59a20.15,20.15,0,0,0-19.25.72l2.05,2a117.75,117.75,0,0,1,13.29-22.14c1.17-1.54-1.43-3-2.59-1.52Z" transform="translate(-211.02 -470.58)"/><path class="cls-5" d="M232.91,568.53c-1.27-3.63-6.41-5.31-10.29-3.93a11.17,11.17,0,0,0-7,8.82c-.61,3.76.38,7.6,1.74,11.19a58.8,58.8,0,0,0,15,22.17l1.49-38.66" transform="translate(-211.02 -470.58)"/><path class="cls-5" d="M388.91,568.53c1.27-3.63,6.41-5.31,10.29-3.93a11.19,11.19,0,0,1,7,8.82c.61,3.76-.38,7.6-1.74,11.19a58.8,58.8,0,0,1-15.05,22.17l-1.49-38.66" transform="translate(-211.02 -470.58)"/><path class="cls-9" d="M335.79,635c-.09.84-.2,1.67-.34,2.48s-.32,1.68-.52,2.49a28.22,28.22,0,0,1-3.2,7.9,19.32,19.32,0,0,1-1.41,2h-38a26.29,26.29,0,0,1-4.59-9.94c-.2-.81-.37-1.64-.52-2.49s-.25-1.64-.34-2.48Z" transform="translate(-211.02 -470.58)"/><path class="cls-10" d="M318.45,649.89H303.34c.17-3,3.49-5.47,7.55-5.47S318.28,646.85,318.45,649.89Z" transform="translate(-211.02 -470.58)"/><polygon class="cls-11" points="57.68 310.02 149.62 310.02 134.71 441.72 66.62 441.72 57.68 310.02"/><line class="cls-11" x1="135.71" y1="441.72" x2="68.12" y2="441.72"/><path class="cls-11" d="M363.13,780.6" transform="translate(-211.02 -470.58)"/><path d="M316.16,911.85l-3.81-105.42c-.07-1.92-3.07-1.93-3,0l3.81,105.42c.07,1.93,3.07,1.94,3,0Z" transform="translate(-211.02 -470.58)"/><path d="M328.57,781.6a26.85,26.85,0,0,0,27.62,26.75c1.93,0,1.94-3,0-3a23.84,23.84,0,0,1-24.62-23.75c0-1.93-3-1.94-3,0Z" transform="translate(-211.02 -470.58)"/><path d="M298.41,782.72a23.9,23.9,0,0,1-26.63,20.66c-1.91-.2-1.9,2.8,0,3a26.75,26.75,0,0,0,29.52-22.86c.28-1.89-2.61-2.7-2.89-.8Z" transform="translate(-211.02 -470.58)"/><path d="M309.18,785c2.22-.88,3.8-.41,4.43,2.17a16.39,16.39,0,0,1-.13,3.89l-.3,9.07,1.9-1.44-5.56-1.23,1.05,1a45,45,0,0,1-.59-15.18c.24-1.91-2.76-1.89-3,0a47.67,47.67,0,0,0,.69,16,1.5,1.5,0,0,0,1.05,1l5.57,1.22a1.52,1.52,0,0,0,1.89-1.45l.3-9.07c.07-2.12.51-4.57-.12-6.62-1.15-3.72-5-3.53-8-2.34-1.78.7-1,3.6.8,2.9Z" transform="translate(-211.02 -470.58)"/><path class="cls-4" d="M343.42,724.28A761,761,0,0,1,450.05,755l5-6.45A375.6,375.6,0,0,0,352.44,714.4c-3.26-.58-7-1-9.54,1.16s-1.42,7.68,1.87,7.25" transform="translate(-211.02 -470.58)"/><path class="cls-4" d="M274.75,716.56c-22.5,7.61-42.05,21.42-53.15,37.53s-13.61,34.34-6.83,49.53l14.11-2.4c-4.4-12.07-2.86-25.89,4.33-38.72s20-24.6,35.82-33c6.4-3.38,14.15-7.14,15.19-12.47l-10.62-.88" transform="translate(-211.02 -470.58)"/><path class="cls-5" d="M469.73,752.39a130.13,130.13,0,0,0-12.55-6c-1.09-.45-2.19-.88-3.29-1.3-.56-.21-2.42-1.1-2.9-1-.28.06-.31.67-.38.87l-.34.92c-.21.59-.42,1.18-.64,1.76l-1.41,3.87-.71,1.93-.37,1c-.06.16-.42.68-.26.86a7.18,7.18,0,0,0,1.53.63l1.62.64L453.4,758l6.75,2.67a8.62,8.62,0,0,0,2.48.72c.81.07,1.53-.23,1.38-.78s-.74-.87-1.32-1.24l-7.89-5.1,11.39,5.47a11.58,11.58,0,0,0,2.24.88c.77.17,1.59.13,1.88-.24.47-.6-.61-1.6-1.62-2.31a84.8,84.8,0,0,0-11-6.65,79.06,79.06,0,0,0,11.12,5.45c1.54.62,3.37,1.21,4.52.82s1-1.62.13-2.64A13.84,13.84,0,0,0,469.73,752.39Z" transform="translate(-211.02 -470.58)"/><path class="cls-5" d="M230.24,822.94a119.16,119.16,0,0,0-.31-14.74c-.11-1.25-.23-2.49-.37-3.73-.08-.63-.12-2.82-.5-3.21-.23-.23-.93.06-1.19.09l-1.21.15c-.78.1-1.56.21-2.34.3l-5.1.65-2.55.33-1.33.17c-.2,0-1-.06-1.1.18a6.29,6.29,0,0,0,.15,1.75l.18,1.84.38,3.83.76,7.66a8.3,8.3,0,0,0,.56,2.67c.38.79,1.12,1.31,1.64.89a3,3,0,0,0,.66-1.86l1.32-10,.22,13.41a9.71,9.71,0,0,0,.26,2.53c.23.81.72,1.56,1.3,1.64.94.13,1.45-1.39,1.69-2.69a77.71,77.71,0,0,0,1.34-13.61,71.37,71.37,0,0,0,.08,13.15c.17,1.74.52,3.75,1.59,4.62s2.38.13,3-1.22A13.21,13.21,0,0,0,230.24,822.94Z" transform="translate(-211.02 -470.58)"/><ellipse class="cls-3" cx="308.21" cy="940.63" rx="15.54" ry="26.45" transform="translate(-889.87 544.2) rotate(-76.15)"/><path d="M323.08,931a33.31,33.31,0,0,1,7.74,20.08c.09,1.92,3.09,1.93,3,0a36.66,36.66,0,0,0-8.62-22.2c-1.24-1.48-3.36.65-2.12,2.12Z" transform="translate(-211.02 -470.58)"/><path d="M310.89,934.32l2.48-6.21c.72-1.8-2.18-2.58-2.89-.8L308,933.52c-.72,1.79,2.18,2.57,2.89.8Z" transform="translate(-211.02 -470.58)"/><path d="M307.91,933.32l2.48-6.21c.72-1.79-2.18-2.57-2.89-.8L305,932.53c-.71,1.79,2.19,2.57,2.9.79Z" transform="translate(-211.02 -470.58)"/><path d="M314.37,934.81l2.48-6.21c.72-1.79-2.18-2.57-2.89-.8L311.48,934c-.72,1.79,2.18,2.57,2.89.79Z" transform="translate(-211.02 -470.58)"/><path d="M347.17,934.32l2.49-6.21c.71-1.8-2.19-2.58-2.9-.8l-2.48,6.21c-.72,1.79,2.18,2.57,2.89.8Z" transform="translate(-211.02 -470.58)"/><path d="M344.19,933.32l2.48-6.21c.72-1.79-2.18-2.57-2.89-.8l-2.48,6.22c-.72,1.79,2.18,2.57,2.89.79Z" transform="translate(-211.02 -470.58)"/><path d="M350.65,934.81l2.48-6.21c.72-1.79-2.18-2.57-2.89-.8L347.76,934c-.72,1.79,2.18,2.57,2.89.79Z" transform="translate(-211.02 -470.58)"/><circle cx="100.67" cy="231.81" r="1.24"/><circle cx="100.67" cy="235.72" r="1.24"/><circle cx="100.67" cy="239.62" r="1.24"/><circle cx="100.17" cy="316.8" r="1.24"/><circle cx="100.17" cy="320.7" r="1.24"/><circle cx="100.17" cy="324.61" r="1.24"/><path class="cls-12" d="M392.77,574.67l0,15.49a1.51,1.51,0,0,0,2.56,1.06,16.21,16.21,0,0,0,1.85-18.56c-.94-1.69-3.53-.18-2.59,1.51a13.11,13.11,0,0,1-1.38,14.93l2.56,1.06,0-15.49a1.5,1.5,0,0,0-3,0Z" transform="translate(-211.02 -470.58)"/><path class="cls-12" d="M394.68,577.35l-.39,6c-.13,1.93,2.87,1.92,3,0l.39-6c.13-1.93-2.87-1.92-3,0Z" transform="translate(-211.02 -470.58)"/><path class="cls-12" d="M396.64,573.08l-.28-.37c-.14-.17-.21-.43,0,0v.8l0-.13-.39.67L396,574l-.66.38-.19,0-.76-.2-.05,0a1.55,1.55,0,0,0,2.13,0,1.52,1.52,0,0,0,0-2.12,2.45,2.45,0,0,0-1.7-.81,1.94,1.94,0,0,0-1.63.89,4.6,4.6,0,0,0-.35,2.84,1.5,1.5,0,0,0,3,0c0-.32-.05-.65-.05-1,0-.15,0-.3,0-.44l0-.18a.78.78,0,0,1-.38.67l-.76.21c.22,0,.17,0-.15-.11s-.35-.14-.15,0l2.13-2.12a2.06,2.06,0,0,0-1.43-.64,1.71,1.71,0,0,0-1.55,1c-.46,1.12.35,1.92,1,2.74a1.5,1.5,0,0,0,2.12,0,1.53,1.53,0,0,0,0-2.12Z" transform="translate(-211.02 -470.58)"/><path class="cls-12" d="M226.29,575.67l0,15.49,2.56-1.06a13.11,13.11,0,0,1-1.38-14.93c.94-1.69-1.65-3.2-2.59-1.51a16.23,16.23,0,0,0,1.85,18.56,1.51,1.51,0,0,0,2.56-1.06l0-15.49a1.5,1.5,0,0,0-3,0Z" transform="translate(-211.02 -470.58)"/><path class="cls-12" d="M224.38,578.35l.39,6c.13,1.92,3.13,1.93,3,0l-.39-6c-.13-1.92-3.13-1.94-3,0Z" transform="translate(-211.02 -470.58)"/><path class="cls-12" d="M227.54,576.2c.64-.82,1.45-1.62,1-2.74a1.66,1.66,0,0,0-1.35-1,2,2,0,0,0-1.62.62l2.12,2.12c.2-.16.15-.17-.15,0s-.37.1-.15.11l-.76-.21a.72.72,0,0,1-.37-.6c0-.13,0-.09,0,.11s0,.29,0,.44a8,8,0,0,1-.05,1,1.51,1.51,0,0,0,1.5,1.5,1.54,1.54,0,0,0,1.5-1.5,4.67,4.67,0,0,0-.35-2.84,1.92,1.92,0,0,0-1.62-.89,2.47,2.47,0,0,0-1.7.81,1.5,1.5,0,1,0,2.12,2.12l-.05,0-.76.2-.19,0L226,575l.08.07-.39-.67,0,.13v-.8c.1-.27.2-.33,0,0l-.28.37a1.55,1.55,0,0,0,0,2.12,1.51,1.51,0,0,0,2.12,0Z" transform="translate(-211.02 -470.58)"/></g><g id="Bags_2" data-name="Bags 2"><path class="cls-1" d="M348,693.5c-7.23,20.92-2,45.64,13,61.85a47.79,47.79,0,0,1-25.11-34.76c-.9-5.92-.63-12.15,1.71-17.66s7-10.22,12.73-11.83l-.59,4.4" transform="translate(-211.02 -470.58)"/><path class="cls-1" d="M276.49,694.5c7.24,20.92,2,45.64-13.05,61.85a47.77,47.77,0,0,0,25.11-34.76c.91-5.92.64-12.15-1.71-17.66s-6.95-10.22-12.72-11.83l.58,4.4" transform="translate(-211.02 -470.58)"/></g></svg>